<svg width="1909" height="665" viewBox="0 0 1909 665" fill="none" xmlns="http://www.w3.org/2000/svg">
<g clip-path="url(#clip0_4_2)">
<path d="M1907.08 664.91C1906.81 651 1906.93 637.08 1906.93 622.42H1856.3V523.21H1798V516.02C1798 474.66 1798.07 433.3 1797.86 391.93C1797.72 388.41 1796.65 384.99 1794.76 382.02C1790.38 375.02 1785.45 368.36 1780.54 361.71C1779.48 360.27 1777.54 358.51 1776.06 358.48C1760.17 358.25 1744.28 358.34 1727.71 358.34V421.45H1692.62V589.59H1659.15V507.48H1630.83V434.48H1597.07V427.48C1597.07 397.01 1597.18 366.55 1596.91 336.08C1596.72 332.83 1595.4 329.76 1593.17 327.39C1585.06 319.25 1576.58 311.46 1567.94 303.87C1566.02 302.42 1563.57 301.85 1561.2 302.3C1538.45 308.3 1515.78 314.64 1493.06 320.77C1489.83 321.64 1488.56 323.11 1488.63 326.62C1488.85 338.69 1488.71 350.77 1488.71 363.37H1440.5V220.93C1432.62 220.93 1425.62 220.67 1418.65 221.1C1416.83 221.21 1414.89 223.18 1413.43 224.71C1397.68 241.18 1381.93 257.71 1366.37 274.34C1364.06 277.09 1360.57 278.58 1356.98 278.34C1346.72 278.09 1336.46 278.25 1325.42 278.25V360.1H1301.33V383.86H1277.48C1277.48 371.97 1277.7 360.49 1277.33 349.04C1277.14 345.97 1275.95 343.05 1273.96 340.71C1267.96 333.96 1261.37 327.71 1254.49 320.71C1244.65 329.07 1235.06 336.98 1225.85 345.31C1224.48 346.56 1224.54 349.78 1224.53 352.09C1224.46 389.02 1224.44 425.95 1224.48 462.87V470.12H1214.81V439.96H1180.42V518.72H1150.02V511.83C1150.02 475.51 1150.17 439.19 1149.85 402.83C1149.85 397.68 1148.61 391.83 1145.85 387.56C1138.57 376.23 1135.78 364.4 1136.62 351C1137.47 337.35 1136.81 323.6 1136.81 309.11H1118.65V282.27H1059.56V448.69H1044.16V413.69C1044.16 409.07 1035.73 397.16 1031.56 395.89C1031.2 395.73 1030.79 395.68 1030.4 395.76C1022.24 399.76 1014.14 403.99 1005.91 407.9C1003.83 408.9 1000.68 410.08 999.18 409.2C997.68 408.32 996.69 405.01 996.6 402.73C996.49 400.15 998.141 397.52 998.141 394.92C998.251 349.52 998.3 304.12 998.06 258.72C998.06 255.05 996.741 250.48 994.341 247.9C986.431 239.36 983.58 229.9 984.42 218.29C985.31 205.85 984.42 193.29 984.72 180.78C984.98 177.36 983.44 174.06 980.66 172.06C974.74 167.5 969.06 162.63 963.66 157.46C961.35 155.18 959.93 152.14 959.66 148.9C959.39 114.8 959.49 80.7 959.49 46.6V38.68H933.01V1.5H890.01V8.78C890.01 72.34 890.04 135.9 890.11 199.46C890.11 204.33 888.43 207.51 885.25 211.03C868.65 229.44 852.29 248.07 836.16 266.91C834.44 268.91 833.81 272.41 833.8 275.22C833.66 321.22 833.66 367.22 833.8 413.22C833.8 418.05 832.65 420.64 827.8 422.7C806.15 431.97 784.8 441.88 763.19 451.3C759.45 452.94 758.251 454.94 758.271 458.97C758.461 485.61 758.37 512.24 758.37 538.88V545.78H749.86V481.78C740.57 483.31 730.86 477.94 723.23 486.03C717.17 492.48 706.92 495.34 705.32 506.37C700.38 508.59 697.05 506 694.44 501.62L699 494.91L697.42 493.57C693.42 497.5 685.1 504.89 685.1 504.89L675.6 501.4C675.6 501.4 678.09 493.89 678.16 490.84C678.43 479.98 678.271 469.11 678.271 457.58C669.451 457.58 660.831 455.21 653.391 461.86C651.161 463.86 648.34 465.17 645.8 466.81C639.27 471 638.13 482.68 643.69 488.3C642.19 493.3 639.24 495.81 633.8 494.03C631.49 487.54 626.53 484.13 619.35 484.09C603.99 484 603.16 483.84 600.35 498.96C598.35 509.91 597.35 521.52 598.6 532.53C600.18 546.66 595.35 554.53 582.13 558.87C576.08 560.87 570.59 564.55 564.85 567.47C563.78 568.02 562.46 568.34 561.66 569.16C555.59 575.37 554.25 575.16 550.91 568C551.91 565.38 553.4 563.16 553.41 560.93C553.55 522.39 553.51 483.85 553.5 445.31C553.5 444.31 553.35 443.38 553.25 442.08H527.32V472.78H512.521C510.371 463.3 508.16 453.58 505.88 443.56H489.76C486.44 464.08 482.36 484.74 480 505.56C478.55 518.31 479.88 531.36 479.6 544.26C479.43 546.97 478.44 549.55 476.76 551.68C471.88 557.85 466.67 563.75 461.16 569.37C458.98 571.52 456.12 572.85 453.07 573.13C441.62 573.54 430.14 573.3 417.73 573.3V565.78C417.73 514.34 417.8 462.91 417.59 411.47C417.59 407.71 415.69 403.91 414.39 400.23C413.7 398.54 412.73 396.99 411.51 395.63C401.12 383.13 396.35 369.05 398.51 352.63C398.8 350.47 396.97 347.35 395.17 345.71C389.53 340.53 383.24 336.06 377.65 330.84C375.59 328.85 374.32 326.19 374.06 323.34C373.66 312.66 373.89 301.96 373.89 291.26L373.87 284.57H346.22C344.45 294.49 344.89 296.57 350.97 304.2L339.06 309.91C337.97 295.57 327.37 289.19 318.93 283.76C312.38 279.54 301.56 281.95 291.79 281.36C291.79 288.11 291.47 293.91 291.88 299.65C292.25 304.73 290.98 308.71 286.8 311.71C282.32 314.91 281.16 319.2 281.18 324.71C281.36 402.99 281.4 481.28 281.3 559.57V567.07H226.35V458.05H180.16V533.43H137.29V601.65H72.1605V649.03C70.0205 649.25 68.4805 649.55 66.9405 649.55H5.20047C3.60047 649.67 2.00047 649.47 0.480469 648.96" stroke="#F6F2D9" stroke-width="3" stroke-miterlimit="10"/>
</g>
<defs>
<clipPath id="clip0_4_2">
<rect width="1908.58" height="664.94" fill="white"/>
</clipPath>
</defs>
</svg>
