<?xml version="1.0" encoding="UTF-8"?>
<svg id="Layer_2" data-name="Layer 2" xmlns="http://www.w3.org/2000/svg" viewBox="0 0 1234.74 453.8">
  <defs>
    <style>
      .cls-1 {
        fill: #f6f2d9;
      }
    </style>
  </defs>
  <g id="Layer_1-2" data-name="Layer 1">
    <g>
      <path class="cls-1" d="M996.29,411.71c.41-.86.31-1.68.31-2.48,0-10.61-.05-21.22.04-31.83.02-2.68-.75-4.88-2.46-6.92-2.61-3.13-5.53-5.88-8.8-8.29-2.35-1.74-4.78-3.46-6.38-5.98-3.81-6-5.11-12.48-3.25-19.42,1.53-5.68,4.34-10.67,8.73-14.64,1.39-1.26,1.99-2.57,1.95-4.46-.11-5.54,1.61-10.53,4.93-14.98,2.06-2.75,4.12-5.51,6.71-7.8,2.19-1.94,2.99-1.98,5.22-.1,5.37,4.54,9.43,9.96,10.96,16.99.46,2.1.39,4.22.32,6.34-.04,1.18.28,2.06,1.08,2.98,4.61,5.3,7.05,11.48,7.22,18.52.02,1.05.24,1.92.96,2.76,5.26,6.23,6.22,13.45,4.34,21.1-2.37,9.65-8.27,16.45-17.39,20.45-2.86,1.25-5.89,2.03-8.66,2.96-.55,1.1-.43,2.03-.43,2.93.05,7.48.2,14.96.13,22.43-.02,2.18.87,3.24,2.67,4.19,11.28,5.97,23.01,10.83,35.04,15.07,16.31,5.74,32.86,10.61,49.84,13.98,2.25.45,4.5,1.11,6.84.9.77-3.02.61-70.97-.16-74.19-1.08-.72-2.32-.38-3.5-.41-4.44-.1-8.91.22-13.32-.35-7.55-.98-13.95-4.55-19.82-9.2-10.01-7.94-15.26-18.43-16.06-31.07-.52-8.18,1.72-15.8,6.04-22.78,1.51-2.44,3.67-4.28,5.83-6.12.75-.64,1.72-1.08,2.27-2.36-6.26-8.28-8.11-17.73-5.67-27.9,2.42-10.08,8.01-17.99,17.18-23.13-.6-2.92-1.24-5.66-1.71-8.43-3.55-21.22,14.01-39.46,34.86-37.34,14,1.42,23.61,8.88,28.47,22.06,2.64,7.14,2.33,14.49.05,21.74-.45,1.44-.92,2.87-1.46,4.52,8.72,5.58,14.81,13.08,17.16,23.29,2.33,10.08.52,19.44-4.94,27.9.48,1.19,1.24,1.74,1.86,2.39,11.81,12.39,13.96,30.12,7.26,44.54-5.58,12.03-15.5,19.1-28.64,21.53-4.61.85-9.25.71-13.9.71-2.1,0-4.21-.22-6.67.22-.78,24.97-.55,49.85-.1,74.87,4.46.88,8.68,1.17,12.89,1.4,15.15.84,30.31.36,45.47.37,22.54.02,45.07-.01,67.61-.01,1.72,0,3.44.05,5.15.17,1.14.08,2.32.39,2.39,1.81.07,1.42-.83,2.27-2.17,2.49-1.19.2-2.41.27-3.62.28-11.22.05-22.43.1-33.65.1-21.63.01-43.25-.2-64.88.04-28,.31-55.02-4.81-81.52-13.53-26.61-8.77-51.64-20.89-75.99-34.59-13.91-7.82-27.92-15.46-42.47-22.07-25.12-11.42-51.41-15.6-78.87-13.71-25.35,1.74-49.19,8.71-72.13,19.39-21.28,9.92-41.41,21.93-61.8,33.48-16.2,9.19-32.8,17.52-50.57,23.27-19.92,6.45-40.35,9.14-61.27,7.61-11.63-.85-22.93-3.34-34.12-6.67-17.15-5.11-33.14-12.77-48.99-20.87-19.43-9.93-38.2-21.09-57.72-30.86-17.19-8.6-34.65-16.46-53.19-21.8-14.91-4.3-29.98-6.41-45.5-5.3-9.63.69-18.96,2.85-28.27,5.19-14.27,3.59-27.69,9.5-41.13,15.3-19.95,8.6-39.15,18.8-58.61,28.44-12.67,6.28-25.35,12.53-38.37,18.09-23.75,10.14-48.49,15.89-74.23,17.61-9.69.65-19.39.85-29.08.89-30.92.12-61.85.12-92.77.16-2.87,0-3.18-.24-3.7-2.06-.39-1.37.09-2.23,1.38-2.51,1.07-.23,2.2-.24,3.31-.24,20.82-.02,41.64.02,62.45-.04,15.66-.05,31.32-.24,46.99-.37.8,0,1.62.11,2.4-.29.76-.84.52-1.9.52-2.88.02-20.72.03-41.43.02-62.15,0-3.25-.05-3.2-3.42-3.43-5.14-.35-10.29-.61-15.34-1.72-19.8-4.34-33.14-20.31-33.74-40.51-.31-10.18,3.56-18.7,10.68-25.83.57-.57,1.15-1.13,1.71-1.7.07-.07.09-.18.31-.66-6.67-8.41-8.84-18.14-6.34-28.81,2.54-10.87,9.61-17.93,19.49-22.52.11-2.27-.56-4.31-.89-6.38-1.54-9.88,3.2-25.31,16.41-31.55,12.97-6.13,26.8-3.16,35.65,5.62,9.24,9.17,11.44,20.04,7.89,32.34-.41,1.43-1.15,2.79-1.25,4.27.94.88,2.08.98,3.12,1.32,17.78,5.82,27.27,27.24,19.63,44.23-1.65,3.67-3.96,6.79-7.27,9.13-.4.28-.9.49-1.06,1.03-.16.52.27.74.58.93,8.48,5.15,15.46,18.31,11.59,32.02-4.51,15.99-15.02,25.32-31.32,28.35-6.13,1.14-12.28.86-18.44.83-1,0-2.02-.25-3.4.45-.26,22.17-.08,44.54.08,66.77,1.27.92,2.41.52,3.47.44,22.48-1.74,44.43-5.84,65.39-14.5,9.25-3.82,18.46-7.68,27.43-12.13,2.14-1.06,3.09-2.26,3.06-4.8-.19-17.89-.2-35.77-.26-53.66,0-.9,0-1.8,0-2.4-.94-1.22-2.03-1.08-2.99-1.32-13.72-3.34-23.87-11.08-29.45-24.25-2.04-4.82-2.88-9.95-2.07-15.14,1.2-7.71,4.81-13.29,12.81-14.43.5-.07,1-.19,1.35-.65-.14-1.03-1.04-1.43-1.72-1.94-6.46-4.8-7.7-11.32-6.02-18.66,1.85-8.09,6.98-13.97,13.33-18.95.79-.62,1.77-.98,2.53-2.02-.91-3.78-1.31-7.79-1.13-11.83.23-5.18,1.82-9.91,4.84-14.13.7-.98,1.5-1.91,2.36-2.76,5.31-5.28,12.12-5.35,17.51-.13,4.4,4.27,6.58,9.63,7.25,15.63.41,3.62.51,7.28-.33,10.86-.46,1.95.06,3.1,1.8,4.24,8.21,5.38,12.87,12.96,13.41,22.86.38,6.79-1.5,12.98-5.27,18.62-.94,1.4-1.86,2.81-2.68,4.04.34.77.76.84,1.15.87,9.17.67,14.38,7.34,14.87,16.17.4,7.32-1.87,13.78-6.98,19.08-7.06,7.32-15.67,11.62-25.82,12.71-.9.1-1.81.2-2.7.34-.29.04-.56.2-.82.3-.73,2.58-.66,53.65.08,57.11.77.43,1.33-.14,1.93-.44,13.36-6.72,26.68-13.51,40.09-20.11,2.26-1.11,2.95-2.4,2.94-4.85-.36-54.27-.4-108.53-.26-162.8.05-18.9.01-37.8.03-56.69,0-1.41-.02-2.84.2-4.23.29-1.84,1.15-2.38,3.01-1.97,1.77.39,3.52.91,5.26,1.44,16.13,4.92,28.28,14.78,36.61,29.43,4.63,8.16,7.79,16.85,9.64,26.03.14.67.07,1.43.91,2.08,1.13-.04,1.98-.98,2.94-1.64,10.81-7.47,21.09-15.66,31.49-23.68,4.96-3.82,9.92-7.64,14.92-11.43,1.19-.9,1.92-1.89,2.09-3.47,1.66-15.54,7.39-29.54,16.56-42.08,2.66-3.64,3.81-7.2,3.75-11.67-.21-15.96.04-31.93-.31-47.9-.01-.5-.03-1.01,0-1.52.17-2.76.96-3.55,3.73-3.57,4.14-.02,8.29.03,12.43.02,19.61-.01,39.21-.03,58.82-.04.71,0,1.41,0,2.12,0,1.34.01,2.06.76,2.21,2.02.12,1,.1,2.02.1,3.03-.05,31.83-.12,63.67-.15,95.5-.01,13.95.07,27.89.13,41.84,0,1-.13,2.02.41,3.38,5.62.57,11.45.29,17.25.39,5.86.1,11.72.08,17.58.11,5.76.03,11.52.07,17.28.08,5.84.01,11.68,0,17.29,0,1.01-1.29.73-2.45.73-3.52.04-31.43.47-62.86-.06-94.28-.05-2.87.76-4.68,3.23-6.15,4.77-2.84,9.36-6,14.1-8.89,1.86-1.13,2.55-2.54,2.54-4.7-.04-12.53.03-25.06.07-37.59,0-.81-.02-1.62,0-2.43.11-2.72.79-3.38,3.48-3.34,3.74.05,7.48.12,11.21.15.99,0,2.02.19,3.02-.29.82-1.05.47-2.31.48-3.48.03-8.69.06-17.38-.02-26.07-.02-2.07.57-3.68,2.04-5.13,9.06-8.95,18.07-17.94,27.1-26.92.36-.36.72-.74,1.15-.99,1.56-.9,3.1-.21,3.38,1.59.15.99.07,2.02.07,3.03.02,25.77.06,51.54,0,77.31,0,2.49.71,4.14,2.82,5.5,5.51,3.56,10.86,7.4,16.4,10.91,2.46,1.56,3.49,3.29,3.47,6.34-.15,23.55-.34,47.09-.62,70.63-.34,28.09.44,56.18.38,84.28-.04,19.3.12,38.6.22,57.9,0,1.29-.25,2.63.47,3.98h13.03c.72-1.61.46-3.04.46-4.43.04-44.16.08-88.32.08-132.49,0-10.81-.04-21.63-.19-32.44-.03-1.99.57-3.13,2.3-4.1,4.4-2.48,8.63-5.26,13.05-7.7,2.19-1.21,3.1-2.64,3.04-5.23-.19-7.78-.08-15.56-.08-23.34,0-.71-.03-1.42,0-2.12.12-2.24.61-2.79,2.9-3.02,1.2-.12,2.42-.13,3.63-.13,4.85,0,9.7.02,14.55,0,.99,0,2.02.22,2.98-.32.73-1.2.51-2.55.52-3.84.01-8.89.07-17.79-.09-26.68-.05-2.74.73-4.73,2.69-6.67,8.12-8.04,16.81-15.45,25.14-23.27.37-.35.75-.68,1.15-.98,1.55-1.14,2.92-.67,3.3,1.24.19.98.1,2.01.1,3.02.02,27.99-.18,55.99.11,83.98.56,52.95.14,105.91,0,158.86-.04,13.84.02,27.69.2,41.53.03,2.36.67,3.61,2.97,4.48,5.95,2.25,11.82,4.71,17.51,7.57.8.4,1.6.88,2.63.95,1.04-1.05.66-2.43.66-3.67.07-14.35.12-28.7.13-43.05.03-53.86.05-107.73.07-161.59,0-.81-.02-1.62,0-2.43.13-3.18,2.12-4.25,4.87-2.53,1.28.8,2.5,1.72,3.66,2.69,19.4,16.17,38.8,32.36,58.19,48.55,5.42,4.53,5.46,4.55,5.46,11.65,0,28.19-.07,56.39-.08,84.58,0,8.59.11,17.18.18,25.77,0,.99-.19,2.04.67,3.11h87.33c.8-1.33.53-2.67.53-3.95,0-19.4.19-38.81-.1-58.21-.21-14.17,3.88-26.98,11.53-38.59,5.85-8.88,13.53-16.04,23.36-20.58,2.87-1.33,5.91-2.08,9.04-2.39,2.8-.27,3.19.1,3.21,2.9.08,8.99.11,17.99.21,26.98.34,30.92.55,61.84,1.11,92.76.51,27.99.63,55.98,1.03,83.97.03,2.28.62,3.66,2.72,4.8,8.33,4.55,16.6,9.23,25.11,13.44.7.34,1.33.95,2.44.72ZM376.63,194.05c-1.58.53-2.64,1.46-3.74,2.3-9.79,7.49-19.54,15.03-29.35,22.49-7.56,5.75-15.14,11.46-22.82,17.05-2.95,2.15-4.15,4.62-4.14,8.39.12,42.23.04,84.47.03,126.71,0,.99-.19,2.02.3,2.96.76.35,1.4-.07,2.04-.3,7.99-2.89,16.17-5.11,24.42-7.1,20.9-5.03,41.86-5.25,62.72-.03,15.71,3.93,30.84,9.61,45.48,16.53,1.89.89,3.25.86,5.02-.16,4.1-2.38,8.25-4.74,12.56-6.7,2.84-1.29,3.79-3.03,3.62-6.07-.24-4.43-.02-8.89-.02-13.33-.04-60.42-.08-120.85-.12-181.27-.02-29.91,0-59.82-.04-89.72,0-1.06.37-2.24-.65-3.29-22.78-.37-45.66-.52-68.56.1-.7,2.79-.55,5.33-.56,7.83-.1,25.16-.22,50.32-.22,75.48,0,40.11.09,80.23.13,120.34,0,2.02,0,4.04-.1,6.06-.06,1.33-.62,2.4-2.15,2.42-1.47.02-2.21-.94-2.37-2.27-.15-1.2-.12-2.42-.12-3.63-.02-28.39-.04-56.79-.06-85.18-.01-17.48-.03-34.96-.06-52.44,0-1.45.13-2.94-.26-4.34-.89.1-1.08.62-1.33,1.02-3.02,4.8-5.63,9.81-7.8,15.05-2.82,6.83-5.36,13.72-5.98,21.19-.52,6.26-.38,12.52-.39,18.78-.02,45.67,0,91.34,0,137.01,0,.91.04,1.83-.1,2.72-.27,1.67-1.3,2.66-2.52,2.49-1.47-.21-1.96-1.28-2.06-2.59-.07-1.01-.07-2.02-.07-3.03-.13-47.29-.25-94.57-.38-141.86,0-1.1.18-2.22-.38-3.6ZM793.37,376.82c-.81-.68-1.56-1.33-2.33-1.96-5.33-4.36-11.15-7.98-17.03-11.55-17.78-10.79-36.52-19.44-56.29-25.88-18.35-5.98-37.16-9.49-56.41-10.5-12.04-.64-24.03.42-35.96,1.98-23.1,3.02-45.59,8.72-67.72,15.89-19.71,6.39-38.87,14.22-57.92,22.32-12.37,5.27-24.37,11.27-36.08,17.87-1.02.57-2.25.94-2.82,2.14.77.97,1.89,1.23,2.86,1.71,8.39,4.21,16.82,8.35,25.03,12.92,18.8,10.45,37.65,20.83,57.19,29.85,18.08,8.35,36.87,14.35,56.78,16.34,11.6,1.16,23.24,1.28,34.76-.55,21.82-3.48,42.46-10.63,62.04-20.83,15.23-7.94,30.02-16.67,44.97-25.1,15.22-8.59,30.63-16.82,46.92-23.27.64-.25,1.4-.34,2.02-1.38ZM572.87,68.16c-.73,1.26-.52,2.5-.53,3.68-.08,11.42-.13,22.83-.15,34.25-.01,6.64.02,6.63-5.69,10.21-3.76,2.36-7.47,4.82-11.26,7.13-1.92,1.17-2.95,2.62-2.66,4.95.14,1.09,0,2.22,0,3.33-.04,51.22-.09,102.44-.11,153.66,0,17.28.04,34.55.1,51.83,0,1.15-.3,2.41.72,3.69,27.44-8.8,55.36-15.37,83.82-18.41.87-1.44.6-2.68.6-3.86.03-19.7.12-39.4.03-59.1-.22-50.71.56-101.43-.07-152.14-.03-2.5-.78-4.15-2.85-5.5-5.66-3.71-11.17-7.64-16.86-11.31-2.1-1.35-2.96-2.86-2.95-5.42.08-24.25.03-48.49,0-72.74,0-.97.19-1.99-.26-2.75-.69-.29-1.02-.04-1.29.24-7.12,7.3-14.54,14.32-21.52,21.76-1.15,1.23-1.39,2.58-1.39,4.15.01,7.07,0,14.14-.05,21.21-.02,2.52-.06,5.05-.22,7.57-.17,2.66-.92,3.29-3.64,3.31-3.03.02-6.06-.04-9.09-.01-1.59.02-3.21-.23-4.69.26ZM661.47,321.95c4.9.43,9.62,1.31,14.28,1.35.71-1.25.51-2.29.52-3.28.1-11.01.23-22.03.25-33.04.05-30.92.05-61.85.08-92.77,0-1.21.04-2.43.22-3.62.15-1,.92-1.58,1.92-1.65,1.03-.07,1.67.57,2.07,1.47.38.86.29,1.79.29,2.69,0,4.14,0,8.29-.02,12.43-.1,38.2-.22,76.4.11,114.6.01,1.19-.25,2.43.66,3.92,14.91,1.93,29.47,6.42,44.08,10.74.25.07.57-.09.84-.14,1.05-4.08,1.27-249.77.25-277.93-.03-.96.21-2.02-.59-2.83-.95.02-1.45.73-2.02,1.26-6.11,5.6-12.17,11.25-18.32,16.8-1.55,1.4-2.17,2.93-2.16,5.02.06,10.21-.01,20.41-.04,30.62,0,3.52-.53,4.07-4.02,4.1-5.56.04-11.12.04-16.67.09-1.08.01-2.22-.24-3.24.41-.68,1.02-.47,2.16-.48,3.25-.02,7.58-.08,15.16.05,22.74.04,2.41-.74,3.97-2.86,5.14-4.15,2.3-8.14,4.89-12.32,7.14-2.51,1.35-3.46,3.02-3.43,5.96.15,14.75.03,29.51.03,44.26.02,38.81.06,77.61.1,116.42,0,1.49-.21,3.02.43,4.87ZM822.48,368.47c.57-1.83.35-3.45.35-5.05.1-32.32.19-64.65.25-96.97.04-23.84.04-47.68.06-71.51,0-1.63-.07-3-1.55-4.28-19.24-16.67-38.94-32.79-58.44-49.14-.74-.62-1.37-1.5-2.52-1.56-.78.88-.42,1.94-.43,2.9-.17,13.84-.21,27.67-.14,41.51.26,53.84-.44,107.67.31,161.51.04,2.64.76,4.21,3.08,5.57,11.92,7.01,24.12,13.58,35.06,22.15.77.61,1.55.88,2.52.62,7.11-1.91,14.22-3.81,21.45-5.74ZM1101.54,275.77c1.13.17,1.92-.57,2.76-1.06,4.54-2.63,9.04-5.35,13.58-7.99,1.92-1.11,3.92-2.09,5.89-3.11,1.05-.54,1.98-.37,2.62.66.63,1.02.84,2.12-.12,3.05-.64.62-1.41,1.16-2.19,1.59-6.61,3.7-13.17,7.49-19.9,10.97-2.41,1.25-3.28,2.69-3.25,5.37.15,16.87.13,33.75.18,50.62,0,.66-.25,1.42.57,2.08,7.01-3.65,13.27-8.58,19.82-12.87,3.35,1.78,3.54,3.36.82,5.36-.33.24-.67.45-1.01.68-5.98,3.95-11.94,7.96-17.98,11.83-1.63,1.05-2.34,2.22-2.3,4.18.12,5.66.05,11.32.07,16.97,0,.79-.14,1.62.46,2.38.22.09.49.3.77.3,6.05.15,12.12.57,18.14-.47,18.17-3.15,30.43-18.81,28.86-37.17-.71-8.32-3.81-15.66-10.29-21.28-.84-.73-1.67-1.48-2.41-2.3-1.68-1.85-1.72-2.82-.11-4.72,1.78-2.1,3.32-4.31,4.31-6.9,5.27-13.7-.67-30.35-13.43-37.62-4.76-2.71-4.82-2.74-2.46-7.86,2.82-6.1,3.54-12.34,1.93-18.9-2.88-11.71-12.36-20.17-23.77-21.68-13.34-1.76-24.9,6.83-29.02,15.66-3.51,7.53-3.51,15.19-.33,22.64,2.29,5.37,1.11,5.62-2.94,7.86-11.03,6.12-15.77,15.77-15.26,28.15.25,6.07,2.9,11.26,6.5,16.04,2.03,2.69,1.85,3.42-.82,5.41-9.75,7.22-14.32,16.94-12.96,28.95,1.72,15.14,10.23,25.53,23.87,31.92,7.57,3.54,15.58,2.72,23.53,2.35.16,0,.31-.23.47-.35.37-.53.32-1.15.32-1.75-.05-10.71-.15-21.42-.13-32.13,0-1.96-.89-2.89-2.53-3.63-5.8-2.61-11.54-5.37-17.04-8.58-.7-.41-1.44-.76-2.08-1.25-1.26-.95-1.44-2.16-.63-3.44.8-1.28,1.81-1,2.88-.41.26.15.53.3.8.43,5.24,2.61,10.48,5.24,15.74,7.82.76.37,1.5,1.1,2.63.56.46-1.94.3-3.96.3-5.95,0-19.7-.05-39.41-.08-59.11,0-1.21-.07-2.45.18-3.62.42-1.99,2.21-2.48,3.64-1.13.99.93,1,2.13.99,3.37-.02,5.05-.04,10.1-.01,15.16,0,.96-.29,2.01.41,2.91ZM122.29,374.99c.53.11,1.01.29,1.49.31,5.96.18,11.96.37,17.85-.61,14.25-2.38,24.24-10.01,28.59-24.17,3.52-11.45-1.82-25.39-14.18-30.27-.75-.3-1.53-.57-2.19-1.01-1.27-.85-1.16-2.44.23-3.13.81-.4,1.71-.62,2.57-.91,2.44-.84,4.56-2.2,6.28-4.1,4.48-4.96,6.68-10.81,6.25-17.49-.83-12.82-10.16-23.52-22.72-26.27-1.08-.24-2.2-.4-3.23-.8-1.57-.6-2.02-1.54-1.44-3.13.45-1.22,1.15-2.35,1.75-3.52,2.73-5.25,4.06-10.76,2.88-16.67-1.26-6.29-4.56-11.39-9.43-15.48-7.39-6.22-15.9-8-24.97-5.04-9.5,3.1-15.07,10.16-17.28,19.83-1.11,4.89-.43,9.61,1.75,14.16,1.43,2.99,1.07,3.8-2.01,5.07-2.72,1.12-5.33,2.42-7.74,4.12-9.8,6.94-14,18.79-10.67,30.19,1.38,4.74,3.84,8.86,7.24,12.46,1.73,1.84,1.61,2.32-.4,3.83-.65.48-1.33.92-1.99,1.39-2.74,1.92-5.33,3.94-7.11,6.91-4.39,7.34-5.36,15.17-3.37,23.36,3.65,15.02,12.72,24.99,27.84,28.94,5.38,1.41,10.98,1.64,16.52,1.99.69.04,1.41.16,2.16-.4.42-.6.33-1.43.33-2.22,0-9.4-.04-18.79.01-28.19.01-1.62-.58-2.56-1.93-3.41-6.07-3.81-12.08-7.73-18.11-11.62-.68-.44-1.41-.84-1.96-1.41-.77-.8-.94-1.83-.23-2.76.75-1,1.73-1.37,2.88-.53.49.35,1.02.66,1.53.98,5.03,3.19,10.06,6.4,15.1,9.57.73.46,1.36,1.25,2.43,1.06.62-1.03.32-2.16.32-3.23.03-22.53.03-45.06.04-67.6,0-1.11-.03-2.24.16-3.32.2-1.18.89-2.11,2.24-2.02,1.32.09,1.94.97,1.99,2.24.03.71,0,1.41-.01,2.12-.08,6.77-.17,13.54-.23,20.31,0,.96-.23,1.97.29,2.84,1.29.05,2.06-.69,2.9-1.18,4.6-2.74,9.17-5.53,13.76-8.28.77-.46,1.57-.95,2.42-1.21,1.07-.33,1.99.06,2.55,1.09.6,1.1.26,1.93-.74,2.57-.25.16-.5.34-.76.5-5.9,3.9-11.87,7.7-18.12,11.01-1.53.81-2.24,1.69-2.23,3.49.13,15.86.17,31.73.25,47.59,0,.56-.16,1.25.68,1.53,1.1-.19,1.95-.94,2.88-1.52,5.74-3.59,11.46-7.2,17.19-10.8.68-.43,1.38-.84,2.08-1.24,1.1-.62,1.92-.23,2.59.72.71,1,.62,1.88-.36,2.63-.8.61-1.6,1.24-2.45,1.78-6.63,4.26-13.2,8.61-19.95,12.68-2.14,1.29-2.82,2.72-2.76,5.09.15,5.96.07,11.92.11,17.88,0,1-.15,2.02.41,3.3ZM276.32,391.86c1.82-.33,3.25-1.09,4.69-1.76,9.24-4.32,18.5-8.59,27.91-12.52,3.59-1.5,3.02-1.4,3.02-4.64.02-29.49.01-58.99.02-88.48,0-15.05.06-30.1.02-45.15,0-2,.48-3.44,2.26-4.56,2.05-1.29,3.88-2.9,5.89-4.26,1.34-.9,1.9-2,1.59-3.58-.13-.69-.11-1.41-.25-2.1-2.37-11.16-6.09-21.74-12.79-31.15-7.46-10.48-17.2-17.78-29.46-21.68-1.03-.33-2.06-.88-3.17-.31-.91,3.31-.71,214.89.27,220.2ZM958.47,192.53c-1.44-.62-2.37-.09-3.31.21-5.61,1.78-10.38,4.96-14.53,9.03-12.25,12.01-18.88,26.5-18.99,43.78-.12,19.8-.18,39.6-.23,59.39-.05,22.02-.05,44.04-.07,66.06,0,3.08.03,3.03,2.75,4.21,4.72,2.05,9.43,4.13,14.12,6.26,6.63,3.01,12.87,6.76,19.28,10.18.91.48,1.77,1.41,3.34.82-.45-66.67-1.47-133.39-2.36-199.94ZM477.43,229.29c0,1.39,0,2.7,0,4-.02,26.76-.06,53.53-.06,80.29,0,18.08.05,36.16.12,54.23,0,1.25-.37,2.63.61,3.73,1.02-.06,1.78-.6,2.59-.98,3.93-1.85,7.77-3.89,11.79-5.52,2.44-.99,3.26-2.32,3.19-4.95-.22-7.47-.16-14.95-.14-22.42,0-3.9.33-4.13,4.08-4.1,7.07.06,14.14.08,21.21.13,1.92.01,3.84-.02,5.75.09,2.77.17,3.12.58,3.11,3.3,0,1.62-.14,3.23-.11,4.85.05,2.28-.33,4.59.19,6.79.89.33,1.53,0,2.2-.22,4.21-1.42,8.43-2.81,12.63-4.25,3.31-1.13,3.33-1.16,3.32-4.68-.06-35.85-.12-71.71-.19-107.56,0-.89.17-1.82-.34-2.65-2.5-.8-66.1-.98-69.95-.09ZM916.19,314.9h-87.5c-.67,3.22-.63,49.28.07,52.4,29.41-5.15,58.6-4.39,87.27,4.63.81-3.02.91-53.42.16-57.03ZM220.58,353.97c.19-.72.34-1,.34-1.29.02-9.09.03-18.18.05-27.27,0-1.37-.48-2.57-1.19-3.69-3.7-5.89-9.03-9.75-15.5-12.01-3.86-1.35-8.51.25-10.8,3.5-2.23,3.16-3.35,6.72-2.78,10.59,1.75,11.72,7.78,20.65,17.99,26.64,3.58,2.1,7.53,3.3,11.89,3.54ZM237.82,268c-1.12.7-1.35,1.85-1.84,2.82-1.43,2.78-2.8,5.59-4.25,8.36-1.08,2.06-2.31,4.09-4.11,5.57-1.36,1.11-1.64,2.39-1.64,3.97,0,11.91-.06,23.82-.07,35.73,0,.63-.31,1.46.67,1.77.85-.21,1.29-.92,1.83-1.5,5.21-5.63,10.23-11.43,14.77-17.63,1.61-2.21,3.01-4.54,4.15-7.02,4.96-10.78,2.82-21.47-5.94-29.48-1.09-1-2.09-2.18-3.57-2.59ZM226.27,354.05c.41.06.81.18,1.21.15,10-.68,18.61-4.28,25.22-12.05,2.75-3.23,4.47-6.94,5.07-11.15.6-4.27-.09-8.28-2.82-11.73-4.07-5.15-10.49-5.36-14.85-.55-.61.67-1.2,1.37-1.77,2.07-3.4,4.15-7.01,8.09-11.16,11.49-1.14.93-1.5,1.99-1.48,3.4.06,5.25.03,10.5.05,15.75,0,.79-.15,1.62.54,2.62ZM212.34,253.38c-.26,2.84.51,5.79,1.33,8.7,1.74,6.21,4.66,11.84,8.83,16.76,1.81,2.14,2.86,2.09,4.2-.18,3.87-6.56,7.08-13.4,8.16-21.05.94-6.67-.22-12.92-4.23-18.42-4.08-5.6-9.49-5.63-13.83-.22-1.08,1.35-1.92,2.84-2.6,4.43-1.32,3.11-2,6.35-1.85,9.98ZM210.3,267.47c-.57.13-.81.11-.95.22-5.58,4.45-9.76,9.95-12,16.73-1.91,5.79-.38,10.75,4.49,14.55,1.35,1.05,2.74,2.07,4.16,3.03,3.93,2.67,7.78,5.44,11.17,8.79,1.25,1.24,2.37,2.61,3.47,3.83.59-.2.62-.53.62-.82-.02-9.08-.07-18.17-.06-27.25,0-1.44-.63-2.49-1.5-3.52-2.62-3.1-4.77-6.51-6.64-10.1-.92-1.78-1.81-3.59-2.76-5.47ZM500.28,339.1c-.13,7.44-.12,14.54.09,21.76.7-.03,1.13.06,1.47-.08,7.35-3.05,14.68-6.13,22.02-9.21.69-.29,1.23-.72,1.23-1.55.01-3.59.12-7.19-.2-10.92h-24.61ZM988.08,326.16c-1.64,1.08-2.77,2.74-3.84,4.41-2.55,3.97-4.48,8.14-3.97,13.06.9,8.68,6.91,15.92,15.54,18.62.41-.85.26-1.77.26-2.66.02-6.36-.03-12.73.08-19.09.04-2.04-.51-3.66-1.73-5.28-1.52-2.01-2.72-4.25-4.09-6.36-.59-.91-.92-2.05-2.25-2.69ZM1021.07,346.26c-.45.7-.72,1.01-.87,1.37-1.91,4.6-5.05,8.22-8.85,11.34-1.09.9-2.2,1.79-3.16,2.82-5.02,5.39-6.19,11.95-5.86,19.45,8.17-1.59,14.22-5.63,18.33-12.49,4.32-7.22,4.78-14.58.42-22.49ZM999.4,332.13c5.29-2.55,9.29-9.32,9.81-16.15.53-6.91-3.7-11.33-8.13-16.03-4.37,3.49-7.87,7.29-8.93,12.51-1.61,7.87,2.21,13.95,7.25,19.67ZM1001.85,359.8c.23.15.46.3.69.45,2.58-3.29,6.45-5.08,9.08-8.26,3.86-4.67,5.94-10.05,5.43-16.18-.31-3.78-1.69-7.16-5.04-9.91-2.74,4.63-6.27,8.35-9.42,12.37-.44.56-.75,1.19-.75,1.94,0,6.53,0,13.07,0,19.6Z"/>
      <path class="cls-1" d="M456.7,184.42c0,25.15,0,50.3,0,75.45,0,1.31-.03,2.63-.03,3.94,0,1.49-.85,2.22-2.22,2.37-1.23.14-2.08-.71-2.29-2.27-.1-.7-.07-1.41-.07-2.12-.07-51.31-.13-102.62-.19-153.92,0-1.51-.12-3.05.86-4.37.63-.84,1.36-1.62,2.5-1.38,1.16.25,1.51,1.25,1.57,2.32.05,1.01.04,2.02.04,3.03,0,25.65,0,51.31,0,76.96-.06,0-.11,0-.17,0Z"/>
      <path class="cls-1" d="M440.68,196.07c0,20.19,0,40.38,0,60.58,0,2.12.08,4.24.12,6.36.02.81.01,1.62-.33,2.38-.47,1.02-1.24,1.55-2.39,1.48-1.17-.07-1.91-.66-2.02-1.84-.12-1.3-.22-2.62-.22-3.92,0-13.02.07-26.05.06-39.07-.03-30.49-.08-60.98-.12-91.47,0-1.21-.05-2.44.14-3.62.19-1.22,1.07-1.96,2.33-1.97,1.16-.02,1.89.72,2.16,1.78.22.87.3,1.79.3,2.69.02,22.21.01,44.42.01,66.63h-.04Z"/>
      <path class="cls-1" d="M419.52,190.49c0-16.36,0-32.72,0-49.08,0-.81-.05-1.63.1-2.41.27-1.43,1.32-1.96,2.68-1.91,1.27.05,2.1.69,2.29,1.98.1.7.08,1.41.08,2.12-.02,32.82-.04,65.65-.06,98.47,0,.91.01,1.83-.11,2.72-.17,1.23-.88,2.05-2.19,2.1-1.29.05-2.15-.73-2.4-1.9-.25-1.17-.25-2.4-.25-3.61-.01-16.16,0-32.32,0-48.48-.04,0-.09,0-.13,0Z"/>
      <path class="cls-1" d="M347.26,292.98c4.54,0,9.08,0,13.62,0,2.37,0,3.08.59,3.1,3.02.06,6.96.07,13.93.01,20.89-.02,2.68-.77,3.29-3.55,3.28-8.88-.02-17.76-.05-26.64-.1-3.37-.02-3.62-.26-3.64-3.62-.04-6.46-.05-12.92-.02-19.38.01-3.5.49-3.93,4.1-3.94,4.34-.01,8.68,0,13.02,0,0-.05,0-.1,0-.14ZM335.17,298.31c-.61,4.19-.39,14.03.29,16.3,3.1.57,21.6.51,23.88-.15-.01-5.41.25-10.88-.3-16.62-8.13.02-15.95-.06-23.87.46Z"/>
      <path class="cls-1" d="M347.04,280.32c-4.34,0-8.68.03-13.02-.01-2.99-.03-3.58-.46-3.65-3.5-.15-7.16-.15-14.33-.12-21.5.01-2.07.48-2.48,2.56-2.49,9.29-.06,18.57-.1,27.86-.06,2.77.01,3.32.63,3.34,3.49.05,6.86.05,13.73,0,20.59-.03,2.93-.68,3.51-3.64,3.54-4.44.04-8.88.01-13.33.01v-.08ZM335.22,258.5c-.09,5.5-.37,11.07.1,16.6,4.7.66,21.71.41,23.71-.3.59-4.6.42-14.74-.28-16.74-3.4-.49-20.46-.22-23.54.44Z"/>
      <path class="cls-1" d="M347.02,334.11c4.73,0,9.46,0,14.19,0,1.27,0,2.44.19,2.84,1.68.4,1.51-.38,2.86-1.94,3.18-.78.16-1.6.15-2.41.15-8.76,0-17.51-.01-26.27-.04-1.06,0-2.24.26-2.86-1.09-.86-1.91.13-3.74,2.25-3.78,4.73-.07,9.46-.02,14.19-.02v-.07Z"/>
      <path class="cls-1" d="M622.25,207.86c-.06,18.55.41,44.82.06,71.08-.01,1.11-.03,2.23-.24,3.31-.22,1.09-1,1.74-2.18,1.7-1.22-.04-1.81-.8-1.93-1.93-.11-1-.16-2.01-.16-3.02-.02-52.33-.04-104.65-.05-156.98,0-1.11.02-2.23.22-3.31.21-1.13,1.1-1.67,2.22-1.69,1.25-.02,1.82.83,1.95,1.91.13,1.1.11,2.22.11,3.33,0,25.96,0,51.92,0,85.6Z"/>
      <path class="cls-1" d="M590.59,210.19c0,20.61,0,41.23,0,61.84,0,.91.05,1.82-.25,2.7-.31.92-.81,1.68-1.86,1.75-1.13.07-1.95-.52-2.37-1.54-.47-1.14-.49-2.36-.49-3.58,0-5.25,0-10.51,0-15.76,0-34.46-.02-68.92-.01-103.38,0-1.92.03-3.85.27-5.74.23-1.84,1.1-2.61,2.42-2.55,1.47.06,2.37,1.03,2.38,2.91.02,7.28-.05,14.55-.05,21.83-.01,13.84,0,27.69,0,41.53,0,0-.02,0-.02,0Z"/>
      <path class="cls-1" d="M606,195.59c0,20.41,0,40.82,0,61.23,0,1.01.04,2.04-.18,3.01-.26,1.15-1.07,1.98-2.33,2.05-1.35.07-1.98-.89-2.28-2.02-.5-1.88-.4-3.81-.4-5.73.02-14.45.05-28.9.08-43.35.04-24.96.07-49.91.12-74.87,0-1.41.04-2.84.27-4.22.21-1.27.96-2.38,2.42-2.23,1.32.14,2.15,1.07,2.22,2.47.06,1.11.06,2.22.06,3.33,0,20.11,0,40.21,0,60.32h.01Z"/>
      <path class="cls-1" d="M569.25,208.07c0-17.16,0-34.31,0-51.47,0-.91,0-1.82.15-2.71.21-1.31,1.18-1.87,2.4-1.83,1.15.04,1.83.79,1.98,1.93.09.7.08,1.41.07,2.11-.25,34.42-.04,68.83.06,103.25,0,.91,0,1.82-.09,2.72-.12,1.28-.88,2.08-2.15,2.12-1.24.03-2.15-.67-2.35-1.93-.16-.99-.13-2.01-.13-3.02,0-17.06,0-34.11,0-51.17h.05Z"/>
      <path class="cls-1" d="M692.78,237.94c0-21.52,0-43.04,0-64.56,0-1.11-.07-2.23.06-3.33.18-1.49,1.34-2.54,2.61-2.43,1.37.12,2.23.93,2.46,2.27.13.79.1,1.61.1,2.42-.12,43.65-.21,87.29,0,130.94,0,1.1.04,2.26-.25,3.3-.33,1.23-1.2,2.15-2.64,2.07-1.52-.09-1.98-1.23-2.18-2.49-.11-.69-.05-1.41-.05-2.12,0-22.03,0-44.05,0-66.08h-.12Z"/>
      <path class="cls-1" d="M713.98,221.72c0,20.3,0,40.6,0,60.89,0,1.01,0,2.02-.1,3.02-.1,1.01-.69,1.66-1.73,1.81-1.11.16-1.97-.21-2.51-1.25-.58-1.14-.45-2.37-.44-3.57.01-15.25.07-30.5.06-45.75-.01-25.35-.06-50.69-.09-76.04,0-1.2-.19-2.43.24-3.6.41-1.12,1.09-1.98,2.43-1.85,1.24.12,1.65,1.07,1.81,2.11.12.79.08,1.61.08,2.42,0,20.6,0,41.2,0,61.8.08,0,.16,0,.25,0Z"/>
      <path class="cls-1" d="M788.38,252.28c0-21.81,0-43.62,0-65.43,0-.91-.04-1.82.03-2.72.16-1.87,1.05-2.99,2.35-3.06,1.39-.07,2.4,1.15,2.58,3.16.05.6.03,1.21.03,1.82-.38,44.33-.1,88.65.03,132.98,0,1.11,0,2.23-.2,3.31-.23,1.25-1.23,1.85-2.43,1.88-1.05.02-1.56-.78-1.88-1.7-.48-1.37-.36-2.79-.36-4.2,0-22.01,0-44.02,0-66.03h-.14Z"/>
      <path class="cls-1" d="M777.52,248.91c0,17.16,0,34.33,0,51.49,0,1.21.01,2.43-.11,3.63-.1,1.08-.66,1.94-1.82,2.12-1.17.18-1.85-.59-2.43-1.46-.41-.63-.39-1.34-.4-2.05-.02-1.41-.02-2.83-.02-4.24.03-33.62.06-67.24.11-100.86,0-1.41.05-2.83.26-4.22.18-1.19.95-2.1,2.27-2,1.24.09,1.98.97,2.17,2.18.13.79.09,1.61.09,2.41,0,17.67,0,35.33,0,53h-.12Z"/>
      <path class="cls-1" d="M809.01,258.98c0,15.85,0,31.71,0,47.56,0,1.01.02,2.03-.14,3.02-.19,1.15-1.04,1.69-2.18,1.69-1.13,0-1.98-.51-2.23-1.65-.17-.78-.18-1.6-.18-2.41-.02-32.01-.04-64.02-.05-96.03,0-.81.01-1.62.13-2.42.19-1.25.91-2,2.25-1.97,1.28.03,2.12.67,2.35,1.92.14.78.09,1.61.09,2.41,0,15.96,0,31.91,0,47.87h-.05Z"/>
      <path class="cls-1" d="M512.44,280.62c-4.44,0-8.87.02-13.31,0-3.18-.02-3.59-.36-3.61-3.4-.06-6.86-.07-13.72-.03-20.57.02-3.37.49-3.8,3.93-3.81,9.08-.02,18.15,0,27.23.02,2.55,0,3.09.47,3.1,2.95.04,7.26.04,14.52-.01,21.78-.02,2.47-.61,3.02-3.08,3.04-4.74.04-9.48.01-14.22.01v-.02ZM525.01,258.36c-3.59-.72-22.02-.63-24.71.12.06,5.48-.25,11.05.15,16.91,8.36-.02,16.35.1,24.57-.05.31-5.87.21-11.36,0-16.98Z"/>
      <path class="cls-1" d="M512.87,320.68c-4.54,0-9.08.05-13.61-.02-3.18-.05-3.63-.53-3.64-3.78-.03-6.86,0-13.72.04-20.57.02-2.82.32-3.13,3.15-3.13,9.18,0,18.36.04,27.53.13,3.2.03,3.66.52,3.69,3.73.07,6.86.09,13.72.11,20.57,0,2.37-.61,3.06-3.04,3.09-4.74.07-9.48.02-14.22.02,0-.01,0-.03,0-.04ZM525,298.38c-3.7-.83-22.07-.58-24.37.23-.61,3.87-.48,14.85.25,17.16h24.03c.47-5.87.27-11.56.09-17.39Z"/>
      <path class="cls-1" d="M908.19,328.61c.49.75.54,1.35.54,1.96.02,6.26.08,12.51.03,18.77-.02,2.75-.3,2.95-2.94,2.99-4.24.05-8.48.09-12.71.07-2.86-.01-3.69-.74-3.72-3.53-.06-5.65-.04-11.3.06-16.95.06-2.91.99-3.7,3.9-3.7,4.14,0,8.27.03,12.41.05.8,0,1.61-.06,2.44.35ZM903.71,347.09c.16-4.6.18-8.97-.01-13.54-3.23-.22-6.07-.35-8.99.1v13.47c3.03.4,5.88.36,9-.03Z"/>
      <path class="cls-1" d="M881.28,328.32c.97,1.3.9,2.43.9,3.53.01,5.75.03,11.5.02,17.25,0,2.96-.28,3.23-3.35,3.26-4.14.03-8.27.04-12.41-.01-2.9-.04-3.44-.52-3.47-3.33-.06-5.95-.04-11.91.01-17.86.02-2.17.5-2.79,2.29-2.82,5.33-.08,10.67-.03,16.01-.03ZM867.87,333.52c-.02,4.9-.22,9.37.1,14.01,3.18.02,5.96.37,8.87-.25v-13.94c-2.97-.18-5.74-.07-8.96.17Z"/>
      <path class="cls-1" d="M855.74,340.27c0,3.03.02,6.06,0,9.09-.02,2.18-.66,2.95-2.87,2.98-4.55.07-9.09.05-13.64-.05-2.31-.05-2.79-.61-2.8-2.98-.04-5.86-.03-11.72.01-17.58.02-2.67.71-3.34,3.48-3.39,4.34-.09,8.69-.12,13.03-.11,2.26,0,2.63.35,2.68,2.65.07,3.13.02,6.26.02,9.4.03,0,.06,0,.09,0ZM841.16,333.45c-.05,4.82-.46,9.27-.12,13.92,3.43-.05,6.5.36,9.73-.41,0-4.64.25-9.01-.08-13.49-3.3-.25-6.19-.18-9.52-.02Z"/>
    </g>
  </g>
</svg>