<svg width="1132" height="1080" viewBox="0 0 1132 1080" fill="none" xmlns="http://www.w3.org/2000/svg">
<g clip-path="url(#clip0_406_76)">
<g filter="url(#filter0_i_406_76)">
<path d="M982.409 1080H1003.09V330.59H910.339C903.719 330.59 898.329 325.12 898.329 318.41C898.329 266.41 878.249 217.56 841.789 180.85C805.339 144.07 756.839 123.82 705.219 123.82C683.139 123.82 661.369 117.94 642.259 106.82C623.079 95.66 607.129 79.58 596.129 60.32L566.409 8.39999C564.069 4.28999 560.129 1.46999 555.679 0.439993L555.699 0.269993C554.569 0.0699928 553.429 -0.0200072 552.309 0.00999282C551.189 -0.0200072 550.049 0.0599928 548.919 0.269993L548.939 0.439993C544.489 1.46999 540.549 4.28999 538.219 8.38999L508.489 60.33C497.489 79.58 481.539 95.66 462.359 106.82C443.249 117.94 421.479 123.82 399.399 123.82C347.779 123.82 299.279 144.07 262.839 180.84C226.379 217.55 206.299 266.41 206.299 318.41C206.299 325.13 200.909 330.59 194.289 330.59H101.539V1080H982.409Z" fill="#F6F2D9"/>
</g>
<path d="M622.407 46.0707C645.167 49.9907 653.377 21.7707 635.097 8.96067C618.777 -2.46933 601.767 3.84067 599.417 25.7407C598.767 31.8207 599.867 37.9007 601.387 43.8307C613.447 90.7607 686.627 114.661 687.817 113.521" stroke="#F6F2D9" stroke-width="6.74" stroke-miterlimit="10"/>
<path d="M418.977 75.8994C409.227 69.8794 397.977 90.9094 419.877 93.2594C425.957 93.9094 432.037 92.8094 437.967 91.2894C484.897 79.2294 506.017 11.2294 507.657 4.85938" stroke="#F6F2D9" stroke-width="6.74" stroke-miterlimit="10"/>
<path d="M418.977 111.01C409.227 117.03 397.977 95.6198 419.877 93.2598" stroke="#F6F2D9" stroke-width="6.74" stroke-miterlimit="10"/>
<path d="M158.448 303.271H113.878C89.3477 303.271 69.4677 323.151 69.4677 347.681C69.4677 347.681 69.4177 379.111 69.4677 389.591C69.7077 445.071 6.26774 434.271 3.43774 387.301C2.03774 364.001 21.7677 354.551 36.3977 360.811C40.4377 362.541 44.0877 365.462 46.7877 369.632" stroke="#F6F2D9" stroke-width="6.74" stroke-miterlimit="10"/>
<path d="M109.578 303.481C109.578 303.481 88.8984 308.401 88.8984 292.231C88.8984 276.061 109.578 278.641 103.958 290.221" stroke="#F6F2D9" stroke-width="6.74" stroke-miterlimit="10"/>
<path d="M1038.2 362.92L1038.17 589.18C1037.88 635.27 1071.84 640.85 1084.64 623.59C1094.64 610.11 1085.81 581.16 1057.47 559.93" stroke="#F6F2D9" stroke-width="10.11" stroke-miterlimit="10"/>
<path d="M1038.2 385.58H1057.76" stroke="#F6F2D9" stroke-width="10.11" stroke-miterlimit="10"/>
<path d="M1038.2 401.92H1057.76" stroke="#F6F2D9" stroke-width="10.11" stroke-miterlimit="10"/>
<path d="M1038.2 418.27H1057.76" stroke="#F6F2D9" stroke-width="10.11" stroke-miterlimit="10"/>
<path d="M1038.2 434.619H1057.76" stroke="#F6F2D9" stroke-width="10.11" stroke-miterlimit="10"/>
<path d="M1038.2 450.959H1057.76" stroke="#F6F2D9" stroke-width="10.11" stroke-miterlimit="10"/>
<path d="M69.1994 752L69.2294 978.26C69.5194 1024.35 35.5594 1029.93 22.7594 1012.67C12.7594 999.19 21.5894 970.24 49.9294 949.01" stroke="#F6F2D9" stroke-width="10.11" stroke-miterlimit="10"/>
<path d="M69.2106 774.65H49.6406" stroke="#F6F2D9" stroke-width="10.11" stroke-miterlimit="10"/>
<path d="M69.2106 791H49.6406" stroke="#F6F2D9" stroke-width="10.11" stroke-miterlimit="10"/>
<path d="M69.2106 807.34H49.6406" stroke="#F6F2D9" stroke-width="10.11" stroke-miterlimit="10"/>
<path d="M69.2106 823.689H49.6406" stroke="#F6F2D9" stroke-width="10.11" stroke-miterlimit="10"/>
<path d="M69.2106 840.039H49.6406" stroke="#F6F2D9" stroke-width="10.11" stroke-miterlimit="10"/>
<path d="M1051.19 1074.97L1051.22 983.541C1051.22 958.221 1005.45 968.63 1036.13 1004.1" stroke="#F6F2D9" stroke-width="10.11" stroke-miterlimit="10"/>
<path d="M1051.21 984.03C1051.21 949.08 1094.56 923.92 1118.35 933.2C1134.88 942.66 1124.16 962.02 1114.26 962.02C1104.36 962.02 1100.42 954.85 1099.06 946.68" stroke="#F6F2D9" stroke-width="10.11" stroke-miterlimit="10"/>
</g>
<defs>
<filter id="filter0_i_406_76" x="101.539" y="0.00390625" width="906.547" height="1103" filterUnits="userSpaceOnUse" color-interpolation-filters="sRGB">
<feFlood flood-opacity="0" result="BackgroundImageFix"/>
<feBlend mode="normal" in="SourceGraphic" in2="BackgroundImageFix" result="shape"/>
<feColorMatrix in="SourceAlpha" type="matrix" values="0 0 0 0 0 0 0 0 0 0 0 0 0 0 0 0 0 0 127 0" result="hardAlpha"/>
<feOffset dx="5" dy="23"/>
<feGaussianBlur stdDeviation="18.9"/>
<feComposite in2="hardAlpha" operator="arithmetic" k2="-1" k3="1"/>
<feColorMatrix type="matrix" values="0 0 0 0 0 0 0 0 0 0 0 0 0 0 0 0 0 0 0.36 0"/>
<feBlend mode="normal" in2="shape" result="effect1_innerShadow_406_76"/>
</filter>
<clipPath id="clip0_406_76">
<rect width="1131.99" height="1080" fill="white"/>
</clipPath>
</defs>
</svg>
