<svg width="527" height="289" viewBox="0 0 527 289" fill="none" xmlns="http://www.w3.org/2000/svg">
<path d="M525.863 0.220546C526.53 1.80985 526.998 3.53663 527.009 5.27992C527.229 43.9126 505.152 78.6573 472.127 97.3934C465.662 101.061 453.062 104.96 448.348 108.475C446.608 109.772 445.815 112.181 443.998 113.523C445.573 115.519 445.116 114.546 446.355 114.034C456.801 109.701 468.074 103.454 479.567 102.002C497.745 99.6977 528.562 103.613 524.955 128.503C523.964 135.339 514.877 141.371 512.933 134.074C511.496 128.657 517.394 133.067 518.457 132.402C523.798 129.069 521.127 118.384 517.162 114.337C503.731 100.622 475.795 106.495 460.034 112.616C449.604 116.669 437.263 122.096 429.85 130.477C434.834 130.241 439.532 128.091 444.581 127.304C470.96 123.185 492.018 132.496 507.344 153.794C515.433 165.041 521.942 176.078 504.304 182.237C478.983 191.08 453.354 180.868 436.475 161.504C432.846 157.341 424.657 143.318 421.887 141.217C421.023 140.563 420.373 140.123 419.239 140.486L383.664 160.592C400.774 164.617 415.615 177.254 417.487 195.507C418.137 201.836 415.923 214.292 407.691 214.292C397.987 214.292 398.643 199.686 402.966 200.594C406.11 202.694 402.305 206.571 404.623 208.821C409.332 213.39 413.484 204.339 413.831 200.115C415.13 184.415 401.413 170.65 387.431 166.234C373.025 161.68 369.649 165.695 356.559 168.357C350.072 169.676 343.045 170.056 336.536 171.425L350.21 183.639C359.94 194.379 375.31 224.318 379.369 238.286C381.395 245.259 379.506 248.399 371.797 249.455C339.124 253.931 314.249 215.992 313.858 186.977C313.814 183.744 316.127 174.312 313.952 172.784L263.019 167.658L280.938 181.285C307.162 201.512 331.96 253.552 304.981 281.565C293.665 293.312 274.264 291.547 273.735 273.399C273.68 271.551 275.266 263.539 278.091 266.492C278.851 267.289 274.77 275.962 281.384 281.554C293.384 291.701 306.661 274.889 310.169 264.16C323.066 224.708 280.712 176.375 245.066 164.397C234.069 160.702 221.475 159.453 210.235 156.363C209.376 157.22 218.038 166.201 219.118 167.719C222.191 172.019 226.332 178.723 228.892 183.37C230.291 185.899 233.529 195.215 233.997 195.683C234.421 196.106 243.535 199.538 245.116 200.11C249.07 201.534 254.643 200.06 253.574 206.241C247.577 206.417 242.148 203.371 236.613 201.545C236.04 202.111 240.556 212.549 240.842 214.6C240.98 215.601 240.71 218.235 238.976 217.531C235.633 216.179 235.534 206.78 232.362 204.366C231.723 204.064 226.684 217.46 224.36 215.651C221.249 213.231 231.106 201.803 229.79 194.698C228.705 188.825 215.516 169.643 211.105 164.628C207.504 160.537 201.231 154.867 195.906 153.228C183.978 149.554 163.101 146.607 150.353 145.067C113.352 140.607 73.9831 141.921 39.6255 157.303C39.3997 158.997 41.6796 158.166 42.6818 158.001C67.2206 153.992 87.5081 154.674 109.293 168.192C132.136 182.363 146.889 214.298 131.442 239.105C110.02 273.503 57.4734 252.92 66.2349 211.642C71.8685 185.102 104.321 188.776 106.589 211.372C109.525 240.563 76.4282 236.053 80.1563 210.003C85.2502 208.969 83.3669 215.469 84.1323 218.736C86.2635 227.832 98.263 229.993 102.057 221.057C109.293 204.025 84.9143 188.215 73.7078 204.042C56.774 227.964 84.2259 261.169 113.363 249.29C137.737 239.353 137.896 208.513 125.225 188.99C100.279 150.544 32.8135 152.92 2.37128 183.645C-0.194937 184.206 -0.905328 179.432 1.37453 177.931C27.67 154.053 63.0188 140.47 98.5329 138.479C110.819 137.791 123.16 138.996 135.292 139.403C155.502 140.074 189.513 121.865 184.556 97.7399C183.906 94.5778 181.092 90.7283 177.728 90.3983C168.487 89.4799 175.69 97.2945 172.034 97.9929C167.958 98.7683 167.243 89.5569 172.595 86.3068C179.385 82.1878 186.627 89.7549 188.075 96.1066C190.944 108.695 185.498 119.55 176.296 127.662C169.968 133.238 162.226 136.334 155.551 141.289L208.368 151.248C211.325 139.54 212.9 128.338 219.244 117.84C227.356 104.416 246.311 87.3517 263.289 90.7008C271.114 92.2461 265.701 109.354 263.977 114.502C257.578 133.617 243.238 148.928 223.419 153.992C224.239 155.323 225.44 155.114 226.668 155.455C237.241 158.392 251.801 160.9 262.787 162.681C274.682 164.606 286.781 165.97 298.814 166.696C288.967 137.571 298.968 96.1616 326.436 79.9276C337.252 73.5319 341.239 76.0396 343.018 88.2096C346.322 110.828 340.297 143.703 320.803 158.073C315.841 161.73 310.163 162.731 305.675 165.524C304.7 166.129 304.023 165.475 304.475 167.642C329.069 170.518 344.824 145.875 351.124 125.275L353.547 125.885C355.32 128.135 348.756 142.598 347.049 145.688C342.45 153.992 336.007 160.493 328.98 166.696C336.332 168.527 386.351 157.215 387.436 152.865C385.239 125.533 385.938 84.3986 405.785 63.1602C430.61 36.5985 430.192 74.1478 428.925 91.9161C427.246 115.558 418.484 124.351 404.943 141.388C404.227 142.29 401.738 144.869 402.96 145.996C415.857 137.335 428.677 127.744 438.293 115.393C448.866 101.798 445.518 102.266 446.916 86.3563C450.617 44.2591 480.729 11.1037 521.243 0.572502C522.768 0.176551 524.272 -0.285391 525.852 0.226045L525.863 0.220546ZM523.148 5.75286C479.539 15.6076 449.224 52.8105 450.584 97.9874L508.539 28.355C512.438 31.9076 506.165 38.1878 503.731 41.4159C488.736 61.3124 468.3 77.7499 455.292 99.4062C459.026 99.8076 464.158 96.563 467.562 94.7153C496.897 78.7453 517.873 52.1231 522.097 18.3408C522.62 14.1558 521.573 9.93234 523.148 5.75286ZM394.034 147.877C403.362 136.164 416.105 124.89 421.1 110.438C425.092 98.8948 427.444 73.0205 423.215 61.7799C421.188 56.3905 418.352 58.4253 414.85 60.9C391.924 77.0735 389.76 115.844 390.724 141.283C398.522 119.116 409.91 97.9709 413.335 74.4448C414.855 72.0911 416.722 74.3238 416.689 76.7655C416.617 82.0064 413.776 91.5312 412.19 96.8325C407.002 114.122 396.677 129.96 394.039 147.877H394.034ZM337.34 82.1218C333.314 79.5922 323.584 87.2197 320.494 89.9804C303.83 104.856 296.258 131.341 299.805 153.019C299.987 154.13 300.378 155.246 301.644 155.406C306.534 138.93 319.162 125.918 324.024 109.508C324.52 107.831 324.608 97.9269 328.05 100.341C330.583 102.117 325.946 115.635 324.729 118.687C322.389 124.544 301.793 158.067 304.486 161.054C336.685 151.072 344.455 111.263 337.34 82.1273V82.1218ZM262.881 95.2817C238.43 93.9179 217.344 119.528 214.376 142.147C213.633 147.822 218.237 140.475 219.035 139.733C229.212 130.23 240.804 122.041 247.985 109.778C248.712 108.535 248.75 106.572 248.882 106.462C250.055 105.466 252.914 106.792 252.49 109.536C251.085 118.665 213.71 148.884 215.88 150.693C236.927 148.037 253.393 133.353 260.21 113.55C261.141 110.85 265.007 96.5905 262.881 95.2872V95.2817ZM427.02 140.349C426.398 140.954 432.373 149.466 433.221 150.616C449.532 172.646 471.312 185.844 499.568 178.442C512.829 174.967 513.979 171.898 507.145 160.564C490.696 133.287 460.188 124.566 430.787 136.103C448.712 142.598 464.555 155.785 483.311 159.888C486.825 160.658 491.952 158.568 492.982 163.385C492.012 167.878 474.308 162.104 471.059 160.823C456.35 155.021 443.188 143.307 427.014 140.343L427.02 140.349ZM318.622 174.235C316.926 190.513 318.622 204.795 326.937 219.104C336.277 235.179 357.512 250.45 376.621 242.966C366.086 217.988 356.141 187.703 330.886 173.746C329.564 173.015 326.618 170.892 325.203 171.887C332.709 181.104 336.2 192.9 342.362 202.755C344.174 205.653 352.17 213.913 351.603 216.102C351.471 216.613 350.077 217.806 349.262 217.526C337.577 207.957 334.73 191.883 325.996 180.51C325.225 179.509 319.734 172.998 318.622 174.235Z" fill="black"/>
<path d="M353.965 124.346C353.145 124.093 352.699 122.855 352.55 121.997C352.264 120.364 351.096 106.599 352.087 106.456H355.381L356.339 116.817C358.663 116.614 363.624 107.039 365.75 109.294C366.84 113.831 362.87 116.124 361.042 119.633L371.433 120.089C373.372 121.414 371.874 124.351 370.938 124.351H353.971L353.965 124.346Z" fill="black"/>
<path d="M245.105 225.055C244.94 223.971 244.785 215.552 247.445 216.597C251.493 218.191 250.397 226.044 245.105 225.055Z" fill="black"/>
<path d="M251.702 212.824C256.647 212.34 258.068 218.818 254.053 221.271C251.845 219.137 251.603 215.717 251.702 212.824Z" fill="black"/>
<path d="M255.953 207.176C258.051 206.67 260.001 209.074 261.042 210.602C259.147 218.01 251.834 208.172 255.953 207.176Z" fill="black"/>
<path d="M359.142 97.047C360.017 97.8114 360.491 103.954 357.738 104.559C353.552 102.546 356.03 94.3303 359.142 97.047Z" fill="black"/>
<path d="M376.109 105.521C377.546 106.951 373.735 114.414 371.406 112.099C369.968 110.669 373.779 103.206 376.109 105.521Z" fill="black"/>
<path d="M369.043 99.8901L371.329 103.041L367.171 106.456C363.905 103.976 366.978 101.76 369.043 99.8846V99.8901Z" fill="black"/>
<path d="M379.853 118.654C378.868 119.732 373.741 119.253 374.297 116.46C375.31 111.356 382.673 115.58 379.853 118.654Z" fill="black"/>
<path d="M227.163 222.195C227.037 222.338 223.821 222.86 223.385 222.679C219.376 220.996 223.397 217.097 225.759 217.526C227.114 217.773 227.714 221.595 227.163 222.195Z" fill="black"/>
<path d="M233.772 221.309C234.284 221.958 233.766 228.2 230.5 226.93C228.314 226.077 229.592 222.613 230.517 221.298C231.332 220.138 233.672 221.183 233.772 221.315V221.309Z" fill="black"/>
<path d="M237.566 227.876C237.39 226.182 237.07 220.705 239.906 221.298C242.643 223.509 241.894 228.805 237.566 227.876Z" fill="black"/>
</svg>
