<svg width="24" height="24" fill="currentColor" viewBox="0 0 24 24" transform="scale(1,-1)   " id="injected-svg"><!--Boxicons v3.0 https://boxicons.com | License  https://docs.boxicons.com/free--><path d="m8.5,1.5c-1.58,0-2.9,1.06-3.34,2.5h-3.16v2h3.16c.43,1.44,1.76,2.5,3.34,2.5s2.9-1.06,3.34-2.5h10.16v-2h-10.16c-.43-1.44-1.76-2.5-3.34-2.5Zm0,5c-.83,0-1.5-.67-1.5-1.5s.67-1.5,1.5-1.5,1.5.67,1.5,1.5-.67,1.5-1.5,1.5Z"></path><path d="m8.5,15.5c-1.58,0-2.9,1.06-3.34,2.5h-3.16v2h3.16c.43,1.44,1.76,2.5,3.34,2.5s2.9-1.06,3.34-2.5h10.16v-2h-10.16c-.43-1.44-1.76-2.5-3.34-2.5Zm0,5c-.83,0-1.5-.67-1.5-1.5s.67-1.5,1.5-1.5,1.5.67,1.5,1.5-.67,1.5-1.5,1.5Z"></path><path d="m16.5,8.5c-1.58,0-2.9,1.06-3.34,2.5H2v2h11.16c.43,1.44,1.76,2.5,3.34,2.5s2.9-1.06,3.34-2.5h2.16v-2h-2.16c-.43-1.44-1.76-2.5-3.34-2.5Zm0,5c-.83,0-1.5-.67-1.5-1.5s.67-1.5,1.5-1.5,1.5.67,1.5,1.5-.67,1.5-1.5,1.5Z"></path></svg>