<svg width="58" height="44" viewBox="0 0 58 44" fill="none" xmlns="http://www.w3.org/2000/svg">
<g clip-path="url(#clip0_393_75)">
<path d="M28.9 4.5C35.6 4.5 41.6 6.8 45.7 11C49 11.4 52.2 12.8 54.8 14.9C50.3 5.4 40.8 0 28.9 0C17 0 7.7 5.3 3 14.9C5.4 13 8.2 11.7 11.3 11.1C15.3 6.8 21.6 4.5 28.9 4.5Z" fill="#F6F2D9"/>
<path d="M43.3967 43.4004C39.5967 43.4004 35.9967 41.9004 33.2967 39.3004C32.9967 39.1004 32.6967 38.9004 32.2967 38.7004C31.1967 38.2004 30.0967 38.0004 28.8967 38.0004C27.3967 38.0004 26.2967 38.4004 25.4967 38.7004C25.0967 38.9004 24.7967 39.1004 24.4967 39.3004C22.7967 41.0004 20.6967 42.2004 18.3967 42.8004C16.0967 43.5004 13.6967 43.5004 11.3967 43.1004C9.09672 42.6004 6.89672 41.6004 5.09672 40.0004C3.29672 38.5004 1.89672 36.5004 0.996723 34.3004C0.0967231 32.1004 -0.203277 29.7004 -0.00327692 27.4004C0.196723 25.0004 1.09672 22.8004 2.39672 20.8004C3.69672 18.8004 5.49672 17.2004 7.59672 16.1004C9.69672 15.0004 11.9967 14.4004 14.3967 14.4004H43.2967C47.0967 14.4004 50.7967 15.9004 53.4967 18.6004C56.1967 21.3004 57.6967 25.0004 57.6967 28.8004C57.6967 32.6004 56.1967 36.3004 53.4967 39.0004C50.7967 41.7004 47.0967 43.2004 43.2967 43.2004L43.3967 43.4004Z" fill="#F6F2D9"/>
</g>
<defs>
<clipPath id="clip0_393_75">
<rect width="58" height="44" fill="white"/>
</clipPath>
</defs>
</svg>
