<?xml version="1.0" encoding="UTF-8"?>
<svg id="Layer_1" xmlns="http://www.w3.org/2000/svg" version="1.1" viewBox="0 0 58 44">
  <!-- Generator: Adobe Illustrator 29.2.1, SVG Export Plug-In . SVG Version: 2.1.0 Build 116)  -->
  <defs>
    <style>
      .st0 {
        fill: #09201f;
      }
    </style>
  </defs>
  <path class="st0" d="M28.9,4.5c6.7,0,12.7,2.3,16.8,6.5,3.3.4,6.5,1.8,9.1,3.9C50.3,5.4,40.8,0,28.9,0S7.7,5.3,3,14.9c2.4-1.9,5.2-3.2,8.3-3.8,4-4.3,10.3-6.6,17.6-6.6Z"/>
  <path class="st0" d="M43.4,43.4c-3.8,0-7.4-1.5-10.1-4.1h0c-.3-.2-.6-.4-1-.6-1.1-.5-2.2-.7-3.4-.7-1.5,0-2.6.4-3.4.7-.4.2-.7.4-1,.6h0c-1.7,1.7-3.8,2.9-6.1,3.5-2.3.7-4.7.7-7,.3-2.3-.5-4.5-1.5-6.3-3.1-1.8-1.5-3.2-3.5-4.1-5.7-.9-2.2-1.2-4.6-1-6.9.2-2.4,1.1-4.6,2.4-6.6,1.3-2,3.1-3.6,5.2-4.7,2.1-1.1,4.4-1.7,6.8-1.7h28.9c3.8,0,7.5,1.5,10.2,4.2,2.7,2.7,4.2,6.4,4.2,10.2s-1.5,7.5-4.2,10.2-6.4,4.2-10.2,4.2Z"/>
</svg>