<?xml version="1.0" encoding="UTF-8"?>
<svg id="Layer_2" data-name="Layer 2" xmlns="http://www.w3.org/2000/svg" viewBox="0 0 1929.03 519.76">
  <defs>
    <style>
      .cls-1 {
        stroke-width: 4.82px;
      }

      .cls-1, .cls-2, .cls-3, .cls-4 {
        fill: none;
        stroke: #231f20;
        stroke-linejoin: round;
      }

      .cls-1, .cls-3 {
        stroke-linecap: round;
      }

      .cls-2, .cls-3, .cls-4 {
        stroke-width: 7.72px;
      }

      .cls-4 {
        stroke-linecap: square;
      }
    </style>
  </defs>
  <g id="Layer_1-2" data-name="Layer 1">
    <g>
      <polyline class="cls-2" points="0 458.22 149.17 458.22 149.17 294.56 246.59 197.14 246.59 417.69 287.89 417.69 287.89 229.09 357.25 298.45 357.25 349.11 386.09 349.11 386.09 406.78 421.94 406.78 421.94 217.85 472.69 183.38 472.69 57.78 545.77 5.46 545.77 107.83 599.62 132.77 599.62 378.72 635.99 378.72 635.99 215.07 785.53 215.07 785.53 398.99 851.08 398.99 851.08 194.8 880.7 165.19 880.7 49.85 952.4 49.85 952.4 358.46 993.44 358.46 993.44 254.03 1016.82 254.03 1016.82 104.4 1081.51 24.13 1081.51 257.15 1121.25 257.15 1121.25 169.87 1203.86 169.87 1203.86 417.69 1238.67 417.69 1238.67 322.61 1265.17 296.12 1265.17 179.22 1304.91 139.47 1304.91 65.44 1337.91 65.44 1337.91 136.61 1371.42 170.13 1371.42 422.37 1400.25 422.37 1400.25 308.59 1417.4 291.12 1417.4 229.09 1460 229.09 1460 367.81 1501.04 367.81 1501.04 255.59 1584.43 172.2 1584.43 388.08 1622.62 388.08 1622.62 310.14 1698.99 310.14 1698.99 420.81 1732.76 420.81 1732.76 250.92 1799.79 250.92 1799.79 451.98 1929.03 451.98"/>
      <line class="cls-4" x1="149.17" y1="308.7" x2="210.92" y2="308.7"/>
      <line class="cls-4" x1="149.17" y1="331.39" x2="210.92" y2="331.39"/>
      <line class="cls-4" x1="149.17" y1="354.08" x2="210.92" y2="354.08"/>
      <line class="cls-4" x1="149.17" y1="376.77" x2="210.92" y2="376.77"/>
      <line class="cls-4" x1="149.17" y1="399.46" x2="210.92" y2="399.46"/>
      <line class="cls-4" x1="149.17" y1="422.15" x2="210.92" y2="422.15"/>
      <line class="cls-4" x1="149.17" y1="444.84" x2="210.92" y2="444.84"/>
      <polyline class="cls-3" points="246.59 197.14 266.47 220.3 266.47 417.69 266.47 462.73"/>
      <polyline class="cls-4" points="545.77 5.46 580.41 40.1 580.41 119.46"/>
      <polyline class="cls-3" points="785.53 215.07 819.91 245.6 819.91 398.99"/>
      <polyline class="cls-3" points="952.4 49.85 978.63 76.08 978.63 358.46"/>
      <polyline class="cls-3" points="1105.67 257.15 1105.67 54.86 1081.51 24.13 1016.82 104.4"/>
      <polyline class="cls-3" points="1225.02 417.69 1225.02 191.03 1203.86 169.87"/>
      <polyline class="cls-3" points="1337.91 65.44 1364.41 91.94 1364.41 161.36"/>
      <polyline class="cls-3" points="1460 229.09 1484.01 253.1 1484.01 367.81"/>
      <polyline class="cls-3" points="1584.43 172.2 1606.68 194.45 1606.68 388.08"/>
      <polyline class="cls-3" points="1799.79 250.92 1833.03 284.16 1833.03 451.98"/>
      <polyline class="cls-3" points="1698.99 310.14 1717.69 329.29 1717.69 420.81"/>
      <polyline class="cls-3" points="287.89 229.09 379.21 276.17 357.25 298.45"/>
      <line class="cls-3" x1="379.21" y1="276.17" x2="379.21" y2="349.11"/>
      <line class="cls-3" x1="472.69" y1="183.38" x2="472.69" y2="484.75"/>
      <line class="cls-3" x1="599.62" y1="378.72" x2="599.62" y2="484.75"/>
      <line class="cls-3" x1="880.7" y1="165.19" x2="880.7" y2="417.69"/>
      <line class="cls-3" x1="1081.51" y1="257.15" x2="1081.51" y2="462.73"/>
      <line class="cls-3" x1="1371.42" y1="422.37" x2="1371.42" y2="515.9"/>
      <line class="cls-3" x1="1501.04" y1="367.81" x2="1501.04" y2="438.42"/>
      <line class="cls-3" x1="1584.43" y1="388.08" x2="1584.43" y2="487.45"/>
      <line class="cls-3" x1="1698.99" y1="420.81" x2="1698.99" y2="477.69"/>
      <line class="cls-3" x1="635.99" y1="378.72" x2="635.99" y2="430.89"/>
      <line class="cls-3" x1="386.09" y1="406.78" x2="386.09" y2="455"/>
      <line class="cls-3" x1="246.59" y1="417.69" x2="246.59" y2="484.75"/>
      <line class="cls-3" x1="545.77" y1="107.83" x2="545.77" y2="399.46"/>
      <line class="cls-3" x1="635.99" y1="242.39" x2="785.53" y2="242.39"/>
      <line class="cls-3" x1="635.99" y1="270.6" x2="785.53" y2="270.6"/>
      <line class="cls-3" x1="635.99" y1="298.81" x2="785.53" y2="298.81"/>
      <line class="cls-3" x1="635.99" y1="327.03" x2="785.53" y2="327.03"/>
      <line class="cls-3" x1="635.99" y1="355.24" x2="785.53" y2="355.24"/>
      <line class="cls-3" x1="635.99" y1="383.45" x2="785.53" y2="383.45"/>
      <path class="cls-3" d="M635.99,411.67h67.2"/>
      <line class="cls-3" x1="785.53" y1="398.99" x2="785.53" y2="469.13"/>
      <line class="cls-3" x1="851.08" y1="398.99" x2="851.08" y2="462.73"/>
      <line class="cls-3" x1="1016.82" y1="254.03" x2="1016.82" y2="438.42"/>
      <line class="cls-3" x1="1265.17" y1="296.12" x2="1265.17" y2="469.13"/>
      <line class="cls-3" x1="1203.86" y1="417.69" x2="1203.86" y2="462.73"/>
      <line class="cls-3" x1="1417.4" y1="291.12" x2="1417.4" y2="440.21"/>
      <line class="cls-3" x1="1460" y1="367.81" x2="1460" y2="449.25"/>
      <line class="cls-3" x1="1622.62" y1="388.08" x2="1622.62" y2="440.21"/>
      <line class="cls-3" x1="1732.76" y1="420.81" x2="1732.76" y2="462.73"/>
      <polyline class="cls-3" points="1304.91 65.44 1273.71 96.64 1273.71 167.5"/>
      <line class="cls-3" x1="1304.91" y1="139.47" x2="1304.91" y2="377.26"/>
      <line class="cls-3" x1="952.4" y1="358.46" x2="952.4" y2="411.67"/>
      <line class="cls-3" x1="580.41" y1="123.87" x2="580.41" y2="331.39"/>
      <line class="cls-3" x1="563.09" y1="115.65" x2="563.09" y2="398.65"/>
      <line class="cls-3" x1="386.09" y1="427.02" x2="429.03" y2="427.02"/>
      <line class="cls-3" x1="386.09" y1="444.84" x2="417.24" y2="444.84"/>
      <g>
        <g>
          <rect class="cls-1" x="894.72" y="62.51" width="16.52" height="16.52"/>
          <rect class="cls-1" x="922.4" y="62.51" width="16.52" height="16.52"/>
        </g>
        <g>
          <rect class="cls-1" x="894.72" y="88.22" width="16.52" height="16.52"/>
          <rect class="cls-1" x="922.4" y="88.22" width="16.52" height="16.52"/>
        </g>
        <g>
          <rect class="cls-1" x="894.72" y="113.93" width="16.52" height="16.52"/>
          <rect class="cls-1" x="922.4" y="113.93" width="16.52" height="16.52"/>
        </g>
        <g>
          <rect class="cls-1" x="894.72" y="139.64" width="16.52" height="16.52"/>
          <rect class="cls-1" x="922.4" y="139.64" width="16.52" height="16.52"/>
        </g>
        <g>
          <rect class="cls-1" x="894.72" y="165.35" width="16.52" height="16.52"/>
          <rect class="cls-1" x="922.4" y="165.35" width="16.52" height="16.52"/>
        </g>
        <g>
          <rect class="cls-1" x="894.72" y="191.06" width="16.52" height="16.52"/>
          <rect class="cls-1" x="922.4" y="191.06" width="16.52" height="16.52"/>
        </g>
        <g>
          <rect class="cls-1" x="894.72" y="216.77" width="16.52" height="16.52"/>
          <rect class="cls-1" x="922.4" y="216.77" width="16.52" height="16.52"/>
        </g>
        <g>
          <rect class="cls-1" x="894.72" y="242.48" width="16.52" height="16.52"/>
          <rect class="cls-1" x="922.4" y="242.48" width="16.52" height="16.52"/>
        </g>
        <g>
          <rect class="cls-1" x="894.72" y="268.19" width="16.52" height="16.52"/>
          <rect class="cls-1" x="922.4" y="268.19" width="16.52" height="16.52"/>
        </g>
        <g>
          <rect class="cls-1" x="894.72" y="293.9" width="16.52" height="16.52"/>
          <rect class="cls-1" x="922.4" y="293.9" width="16.52" height="16.52"/>
        </g>
        <g>
          <rect class="cls-1" x="894.72" y="319.61" width="16.52" height="16.52"/>
          <rect class="cls-1" x="922.4" y="319.61" width="16.52" height="16.52"/>
        </g>
        <g>
          <rect class="cls-1" x="894.72" y="345.32" width="16.52" height="16.52"/>
          <rect class="cls-1" x="922.4" y="345.32" width="16.52" height="16.52"/>
        </g>
      </g>
      <line class="cls-3" x1="1103.46" y1="258.37" x2="1103.46" y2="499.75"/>
    </g>
    <polyline class="cls-3" points="1121.25 169.87 1164.98 213.59 1164.98 462.73"/>
    <line class="cls-3" x1="1016.82" y1="136.61" x2="1081.51" y2="56.34"/>
    <line class="cls-3" x1="1016.82" y1="176.75" x2="1081.51" y2="96.48"/>
    <line class="cls-3" x1="1016.82" y1="216.89" x2="1081.51" y2="136.61"/>
    <line class="cls-3" x1="1016.82" y1="257.02" x2="1081.51" y2="176.75"/>
    <line class="cls-3" x1="1016.82" y1="297.16" x2="1081.51" y2="216.89"/>
    <line class="cls-3" x1="1016.82" y1="337.29" x2="1081.51" y2="257.02"/>
    <line class="cls-3" x1="1016.82" y1="377.43" x2="1081.51" y2="297.16"/>
    <line class="cls-3" x1="1016.82" y1="417.56" x2="1081.51" y2="337.29"/>
    <line class="cls-3" x1="1337.91" y1="136.61" x2="1337.91" y2="231.84"/>
    <line class="cls-3" x1="1460" y1="255.17" x2="1484.01" y2="279.18"/>
    <line class="cls-3" x1="1460" y1="280.81" x2="1484.01" y2="304.82"/>
    <line class="cls-3" x1="1460" y1="306.45" x2="1484.01" y2="330.46"/>
    <line class="cls-3" x1="1460" y1="332.09" x2="1484.01" y2="356.1"/>
    <line class="cls-3" x1="1460" y1="385.38" x2="1501.04" y2="385.38"/>
  </g>
</svg>