<?xml version="1.0" encoding="UTF-8"?>
<svg id="Layer_2" data-name="Layer 2" xmlns="http://www.w3.org/2000/svg" viewBox="0 0 228.36 158.01">
  <defs>
    <style>
      .cls-1 {
        fill: none;
        stroke: #000;
        stroke-linecap: round;
        stroke-linejoin: round;
        stroke-width: 1.45px;
      }
    </style>
  </defs>
  <g id="Layer_1-2" data-name="Layer 1">
    <g>
      <path class="cls-1" d="M177.65.73c14.99,18.65,34.17,38.75,49.98,51.07"/>
      <path class="cls-1" d="M227.63,71c-2.9-.32-5.68-.48-8.31-.38-20.15.74-38.65,42.55-39.84,52.52-.52,4.33-4.92,9.54-10.01,13.2-6.65,4.78-14.47,6.9-16.33.9-3.27-10.58,18.11-19.7,23.46-21.75,5.36-2.06-1.25-7.29-6.45-10.8-5.19-3.52-5.31,1.21-9.15,1.65-3.85.43-15.31-6.57-19.28-8.66-3.96-2.09,14.47-11.06,18.34-12.61,3.87-1.56,4.14-7.11,4.4-11.94s-61.53,29.6-69.34,27.76,77.51-37.41,83.61-38.12c6.11-.69-10.88,18.22-12.77,23.62-1.88,5.4,3.82,14.39,7.46,10.93,3.63-3.46,22.55-41.31,21.76-46.13-.47-2.85-3.9-6.35-6.97-8.07-.74,2.72-6.24,2.64-4.76-.21.69-1.32,2.64-.98,4.76.21.11-.36.12-.76.03-1.22-.8-3.92-8.77-7.86-14.08-8.33-5.31-.48-10.96-2.79-15.29-5.55-4.34-2.76-135.62,44.63-136.65,47.74-1.04,3.1,16.22,3.31,19.96,3.15,3.74-.15,110.24-41.17,118.38-43.54,8.14-2.37,20.13,6.7,18.53,7.94-1.59,1.24-107.64,38.65-110.65,40s-4.24.91-8.83-1.07-16.6-.16-15.8,2.71c.8,2.86,17.42,16.23,18.74,17.23.88.67-1.66,2.78-3.59,5.29.65.25,1.16.62,1.49,1.12,2.07,3.17-3.9,6.73-3.42,2.78.16-1.31.97-2.66,1.93-3.9-3.47-1.35-10.64.71-11.59,4.59-1.13,4.61,6.41,11.56,10.14,11.06s5.85-20.26,7.18-17.05-7.81,30.38-10.22,31.49c-2.4,1.11-22.39-18.1-24.48-21.87-2.1-3.79,6.72-29.69,9.04-31.66,2.32-1.98-20.13-6.17-25.87-6.7-5.73-.54-14.09,40.49-12.15,49.02,1.95,8.53,21.28,12.68,23.64,13.25s4.88,3.75,11.51,7.13c6.64,3.37,8.58,1.32,3.54-.6-5.04-1.91-9.1-4.84-10.96-7.47s-13.13-6.29-19.07-8.5c-5.93-2.21-6.54-6.68-5.79-10.97.76-4.29,12.38-5.59,15.22-7.4,2.85-1.81,8.71-27.41,9.83-25.81,1.11,1.6-6.62,21.22-6.97,25.49-.34,4.26,8.16,14.46,10.8,17.21,2.63,2.74,3.07,5.2,5.79,11.06,2.73,5.85,9.97,12.01,17.63,16.16,7.67,4.15,11.7-1.98,12.83-5.73,1.12-3.75-4.99,2.42-6.77,2.71s12.55-35.75,15.25-41.77-2.58-16-8.35-20.87c-5.76-4.87-.28-5.48,3.39-5.4,3.67.09,14.11,11.34,14.72,17.73.61,6.37-17.17,40.81-16.9,44.6.28,3.79,42.61-19.25,44.99-21.25s-3.54-2.29-3.28-4.02c.25-1.73,14.67-30.21,15.82-29.29,1.15.93-10.84,23.4-11.57,27.47-.72,4.08,18.31,4.54,23.01,5.3,4.71.76-9.93-5.5-13.09-6.35s2.8-15.47,5.57-18.38c2.77-2.92,11.95,2.26,15.22,3.01s7.32,7.07,5.25,7.89c-2.06.82-11.87.5-11.56,2.93.32,2.42,2.6,18.17,4.57,11.4,1.96-6.77,14.28-16.44,19.04-18.02,4.77-1.58,2.6,2.67-4.84,6.96-7.43,4.3-19.49,24.04-18.62,38.42.59,9.61,22.24-6.67,28.61-16.9,3.17-5.08,2.56-8.67-6.26-6.86"/>
    </g>
  </g>
</svg>