<?xml version="1.0" encoding="UTF-8"?>
<svg id="Layer_2" data-name="Layer 2" xmlns="http://www.w3.org/2000/svg" viewBox="0 0 220.81 168.06">
  <defs>
    <style>
      .cls-1 {
        fill: none;
        stroke: #000;
        stroke-linecap: round;
        stroke-linejoin: round;
        stroke-width: 1.45px;
      }
    </style>
  </defs>
  <g id="Layer_1-2" data-name="Layer 1">
    <g>
      <path class="cls-1" d="M.73,45.55C17.48,35.31,38.5,17.63,55.48.73"/>
      <path class="cls-1" d="M.73,64.06c2.53.01,4.95.15,7.23.48,19.96,2.85,33.93,46.36,34.06,56.4.06,4.35,3.87,9.98,8.53,14.15,6.11,5.47,13.68,8.41,16.16,2.63,4.38-10.18-15.92-21.49-21.02-24.09-5.11-2.6,2.02-7.12,7.56-10.06,5.54-2.95,5.15,1.76,8.93,2.59,3.77.84,15.92-4.93,20.08-6.59,4.17-1.66-13.21-12.51-16.9-14.46-3.68-1.95-3.36-7.5-3.1-12.33.25-4.83,58.05,35.88,66.01,34.86S55.15,62.33,49.15,60.99c-5.99-1.33,8.9,19.26,10.2,24.83,1.3,5.56-5.32,13.9-8.57,10.08s-18.05-43.44-16.75-48.15c.77-2.79,4.54-5.91,7.77-7.3,2.24-.96,4.22-1.09,4.77.29,1.18,2.99-4.31,2.5-4.77-.29-.06-.36-.03-.77.11-1.21,1.22-3.82,9.56-6.9,14.89-6.82,5.33.09,11.19-1.63,15.79-3.91,4.61-2.29,130.14,58.57,130.84,61.76.7,3.2-16.49,1.6-20.19,1.05-3.7-.54-105.26-52.47-113.1-55.68-7.85-3.21-20.73,4.56-19.28,5.96s102.95,49.69,105.8,51.35c2.85,1.65,4.12,1.34,8.9-.14,4.77-1.49,16.52,1.58,15.42,4.34-1.1,2.77-19.04,14.33-20.46,15.18-.95.57,1.36,2.93,3.02,5.63.82,1.34,1.48,2.76,1.49,4.08.06,3.99-5.5-.18-3.1-3.12.38-.47.93-.78,1.61-.96,3.6-.97,10.49,1.83,11.03,5.78.63,4.7-7.6,10.83-11.26,9.94-3.66-.88-3.67-20.76-5.33-17.71-1.67,3.06,4.55,31.03,6.82,32.39,2.27,1.35,24.18-15.66,26.67-19.19,2.48-3.54-3.54-30.22-5.64-32.43s20.67-4.03,26.43-3.96,9.73,41.75,6.89,50.02c-2.84,8.28-22.5,10.38-24.91,10.71-2.4.32-5.25,3.22-12.2,5.88-6.96,2.66-8.68.42-3.46-.96s9.56-3.87,11.69-6.29,13.73-4.88,19.86-6.46c6.14-1.57,7.22-5.96,6.92-10.3-.29-4.34-11.71-6.85-14.35-8.95-2.63-2.09-5.75-28.17-7.03-26.7-1.28,1.48,4.33,21.8,4.22,26.08-.1,4.28-9.64,13.53-12.55,15.99-2.92,2.45-3.61,4.85-6.94,10.39-3.33,5.53-11.18,10.9-19.25,14.23-8.06,3.32-11.42-3.19-12.14-7.04s4.7,2.93,6.44,3.4c1.74.48-8.69-36.86-10.74-43.13s4.27-15.65,10.51-19.88c6.25-4.24.87-5.42-2.79-5.73-3.66-.3-15.23,9.81-16.52,16.09-1.28,6.28,12.75,42.38,12.08,46.12s-40.33-23.59-42.48-25.84c-2.16-2.24,3.76-1.9,3.68-3.65-.07-1.75-11.39-31.57-12.63-30.78-1.24.8,8.3,24.4,8.59,28.53.3,4.13-18.68,2.59-23.44,2.86-4.75.26,10.47-4.43,13.7-4.94,3.22-.52-1.15-15.68-3.59-18.87-2.45-3.19-12.13,1-15.46,1.4-3.33.41-8.03,6.27-6.06,7.3,1.96,1.03,11.76,1.74,11.19,4.12s-4.52,17.81-5.75,10.87c-1.23-6.94-12.46-17.85-17.03-19.92-4.58-2.07-2.87,2.38,4.07,7.43s16.84,25.95,14.45,40.16c-1.61,9.5-21.45-9-26.68-19.83-2.59-5.37-1.59-8.86,6.98-6.14"/>
    </g>
  </g>
</svg>