<?xml version="1.0" encoding="UTF-8"?>
<svg id="Layer_2" data-name="Layer 2" xmlns="http://www.w3.org/2000/svg" viewBox="0 0 508.42 204.79">
  <defs>
    <style>
      .cls-1 {
        fill: none;
        stroke: #000;
        stroke-miterlimit: 10;
        stroke-width: 1.16px;
      }
    </style>
  </defs>
  <g id="Layer_1-2" data-name="Layer 1">
    <path class="cls-1" d="M276.76,183.95c8.73-9.08,8.62-19.53.08-27.89-5.77-5.6-11.39-2.31,4.29-8.7,17.38-7.34,30.71-10.52,47.1-21.08,5.69-3.67,11.2-7.38,17.23-10.52l.34-.19c2.05.15,14.5,3.52,17.08,4.16,14.88,3.67,29.79,7.57,44.71,11.16,4.4,1.02,8.84,2.08,13.25,3.06,1.74.42,7.55,1.85,7.89-1.14.23-2.19-16.21-5.64-18.37-6.17-7.17-1.7-14.23-3.59-21.37-5.45-4.25-1.1-39.32-9.8-39.74-10.71-.8-3.63,6.03-8.14-5.24-15.59-3.91-2.61-2.81-1.93-.27-7.27,7.1-14.87,13.4-30.2,20-45.29,1.4-3.22,2.85-6.39,4.25-9.61,4.1-9.31,8.2-18.62,12.3-27.92l-10.51-2.57c-17.61,24.86-35.26,50.29-53.48,74.66-4.1,5.49-4.21,7-12.26,6.17-5.01-.49-10.63-1.44-15.71-2.12-2.81-.34-5.65-.68-8.46-1.06l-21.22-13.85-4.63.34,15.41,11.05c-48.54-6.47-97.24-13.43-145.86-18.88-9.56-1.1-12.03-.64-21.33,1.44l-1.52.3c-2.05.49-2.13-.19-4.44-1.44-20.23-11.31-40-23.27-60.12-34.74-4.18-2.38-23.53-13.28-25.92-15.89-.83-1.93,2.58-7.23-.11-7.64C8.76.36-.23,7.36.64,8.91c2.96,2.95,24.41,15.74,29.07,18.58,6.45,3.94,13.82,8.1,19.93,12.34,4.33,2.99-1.03,3.56,6.22,7.53,4.18,2.31,5.66.76,10.48,3.25,7.21,3.75,15.22,8.93,21.98,13.47l.72.49c1.18.91.95.79-.76,2.27-10.36,8.7-23.61,17.56-23.91,32.62-.11,4.88,2.92,5.37,7.17,7.3,19.02,8.63,53.63,13.92,74.85,15.7,5.81.45,54.16,4.54,55,4.09,3.3-1.93,4.21-6.36,10.36-6.89,8.27-.76,29.04,6.4,37.84,9.42,1.06.38,7.06,2.19,7.25,3.37.61,3.71-3.15,1.89,5.73,4.28,22.24,5.94,44.48,11.88,66.73,17.82,51.39,13.77,103.2,26.87,154.36,41.36,4.48,1.25,13.66,5.03,17.57,2.88,2.09-1.17,3.3-3.29,6.07-2.01,1.86.91-1.67,3.67-2.62,4.62-4.37,4.43-6.53,2.69-12.34,1.06-13.09-3.71-26.38-6.77-39.59-10.1-11.16-2.84-22.36-5.68-33.55-8.44-6.79-1.66-2.73-.83-5.85,1.97-1.75,1.59-6.22-.49-8.5-1.25-6.26-2.08-2.13-4.84-4.63-5.6-5.58-1.74-12.49-3.25-18.26-4.73-8.84-2.27-18.3-4.88-27.18-6.85-.19-.04-.38-.08-.57-.11-2.05.87-2.2,4.69-8.88,2.84-2.96-.79-8.27-1.63-9.72-4.62-2.24-4.58.87-2.88-6.34-4.62-8.28-2.01-16.55-4.01-24.82-6.05-1.52,1.7-7.93,9.46-9.68,9.69-1.75.11-2.81-.38-4.52.19,3.91,4.01,6.03,8.82,3.76,14.42-4.56,11.12-31.43,15.89-44.94,5.41-9.49-7.38,12.87,2.73,15.86-14.19,1.59-9.01-8.46-13.28-8.69-15.21,3.61.3,9.56,3.22,12.15,5.94,10.7,11.35-2.66,30.46-19.05,23.72-14.2-5.9-14.46-32.81,8.69-33.18l1.56-.04c7.29.11,8.62-.57,15.18-3.82,2.81-1.4-2.96-.57-4.17-.57-2.24.04-4.4.04-6.6-.04-.19-3.63-1.25-2.23-5.62-2.23-.61,0-6.72-.08-6.72-.08-.64.3-.8,1.97-4.86,2.84-3.64.76-8.08.3-11.84.23-8.73-.04-17.42-.34-26.15-.76-11.27-.61-15.07-2.57-24.48-8.36-3.91-2.38-4.93-1.78-9.41-1.97-18.83-1.06-37.77-1.74-56.51-4.05-14.5-1.82-39.02-5.41-48.2-17.9-1.4-1.93-4.48-6.02-4.37-8.44,4.59,1.93,9.79,5.22,14.76,7.38,18.41,8.06,47.75,12.15,67.98,13.51,15.86,1.1,31.73,2.35,47.6,3.41"/>
  </g>
</svg>