<?xml version="1.0" encoding="UTF-8"?>
<svg id="Layer_2" data-name="Layer 2" xmlns="http://www.w3.org/2000/svg" viewBox="0 0 1929.03 511.44">
  <defs>
    <style>
      .cls-1 {
        fill: none;
        stroke: #231f20;
        stroke-linejoin: round;
        stroke-width: 2px;
      }
    </style>
  </defs>
  <g id="Layer_2-2" data-name="Layer 2">
    <g id="Layer_1-2" data-name="Layer 1-2">
      <g>
        <polyline class="cls-1" points="0 453.76 149.17 453.76 149.17 290.1 246.59 192.69 246.59 413.24 287.89 413.24 287.89 224.64 357.25 294 357.25 344.65 386.09 344.65 386.09 402.32 421.94 402.32 421.94 213.39 472.69 178.93 472.69 53.32 545.77 1 545.77 103.37 599.62 128.31 599.62 374.27 635.99 374.27 635.99 210.61 785.53 210.61 785.53 394.53 851.08 394.53 851.08 190.35 880.7 160.73 880.7 45.39 952.4 45.39 952.4 354.01 993.44 354.01 993.44 249.58 1016.82 249.58 1016.82 99.95 1081.51 19.67 1081.51 252.69 1121.25 252.69 1121.25 165.41 1203.86 165.41 1203.86 413.24 1238.67 413.24 1238.67 318.16 1265.17 291.66 1265.17 174.76 1304.91 135.02 1304.91 60.98 1337.91 60.98 1337.91 132.16 1371.42 165.67 1371.42 417.91 1400.25 417.91 1400.25 304.13 1417.4 286.67 1417.4 224.64 1460 224.64 1460 363.36 1501.04 363.36 1501.04 251.13 1584.43 167.75 1584.43 383.62 1622.62 383.62 1622.62 305.69 1698.99 305.69 1698.99 416.35 1732.76 416.35 1732.76 246.46 1799.79 246.46 1799.79 447.53 1929.03 447.53"/>
        <line class="cls-1" x1="149.17" y1="304.25" x2="210.92" y2="304.25"/>
        <line class="cls-1" x1="149.17" y1="326.94" x2="210.92" y2="326.94"/>
        <line class="cls-1" x1="149.17" y1="349.63" x2="210.92" y2="349.63"/>
        <line class="cls-1" x1="149.17" y1="372.31" x2="210.92" y2="372.31"/>
        <line class="cls-1" x1="149.17" y1="395" x2="210.92" y2="395"/>
        <line class="cls-1" x1="149.17" y1="417.69" x2="210.92" y2="417.69"/>
        <line class="cls-1" x1="149.17" y1="440.38" x2="210.92" y2="440.38"/>
        <polyline class="cls-1" points="246.59 192.69 266.47 215.84 266.47 413.24 266.47 458.27"/>
        <polyline class="cls-1" points="545.77 1 580.41 35.64 580.41 119.65"/>
        <polyline class="cls-1" points="785.53 210.61 819.91 241.14 819.91 394.53"/>
        <polyline class="cls-1" points="952.4 45.39 978.63 71.63 978.63 354.01"/>
        <polyline class="cls-1" points="1105.67 252.69 1105.67 50.4 1081.51 19.67 1016.82 99.95"/>
        <polyline class="cls-1" points="1225.02 413.24 1225.02 186.57 1203.86 165.41"/>
        <polyline class="cls-1" points="1337.91 60.98 1364.41 87.49 1364.41 158.54"/>
        <polyline class="cls-1" points="1460 224.64 1484.01 248.64 1484.01 363.36"/>
        <polyline class="cls-1" points="1584.43 167.75 1606.68 190 1606.68 383.62"/>
        <polyline class="cls-1" points="1799.79 246.46 1833.03 279.7 1833.03 447.53"/>
        <polyline class="cls-1" points="1698.99 305.69 1717.69 324.83 1717.69 416.35"/>
        <polyline class="cls-1" points="287.89 224.64 379.21 271.71 357.25 294"/>
        <line class="cls-1" x1="379.21" y1="271.71" x2="379.21" y2="344.65"/>
        <line class="cls-1" x1="472.69" y1="178.93" x2="472.69" y2="480.3"/>
        <line class="cls-1" x1="599.62" y1="374.27" x2="599.62" y2="480.3"/>
        <line class="cls-1" x1="880.7" y1="160.73" x2="880.7" y2="413.24"/>
        <line class="cls-1" x1="1081.51" y1="252.69" x2="1081.51" y2="458.27"/>
        <line class="cls-1" x1="1371.42" y1="417.91" x2="1371.42" y2="511.44"/>
        <line class="cls-1" x1="1501.04" y1="363.36" x2="1501.04" y2="433.96"/>
        <line class="cls-1" x1="1584.43" y1="383.62" x2="1584.43" y2="482.99"/>
        <line class="cls-1" x1="1698.99" y1="416.35" x2="1698.99" y2="473.23"/>
        <line class="cls-1" x1="635.99" y1="374.27" x2="635.99" y2="426.43"/>
        <line class="cls-1" x1="386.09" y1="402.32" x2="386.09" y2="450.54"/>
        <line class="cls-1" x1="246.59" y1="413.24" x2="246.59" y2="480.3"/>
        <line class="cls-1" x1="545.77" y1="103.37" x2="545.77" y2="395"/>
        <line class="cls-1" x1="635.99" y1="237.93" x2="785.53" y2="237.93"/>
        <line class="cls-1" x1="635.99" y1="266.14" x2="785.53" y2="266.14"/>
        <line class="cls-1" x1="635.99" y1="294.36" x2="785.53" y2="294.36"/>
        <line class="cls-1" x1="635.99" y1="322.57" x2="785.53" y2="322.57"/>
        <line class="cls-1" x1="635.99" y1="350.78" x2="785.53" y2="350.78"/>
        <line class="cls-1" x1="635.99" y1="379" x2="785.53" y2="379"/>
        <path class="cls-1" d="M635.99,407.21h67.2"/>
        <line class="cls-1" x1="785.53" y1="394.53" x2="785.53" y2="464.68"/>
        <line class="cls-1" x1="851.08" y1="394.53" x2="851.08" y2="458.27"/>
        <line class="cls-1" x1="1016.82" y1="249.58" x2="1016.82" y2="433.96"/>
        <line class="cls-1" x1="1265.17" y1="291.66" x2="1265.17" y2="464.68"/>
        <line class="cls-1" x1="1203.86" y1="413.24" x2="1203.86" y2="458.27"/>
        <line class="cls-1" x1="1417.4" y1="286.67" x2="1417.4" y2="435.75"/>
        <line class="cls-1" x1="1460" y1="363.36" x2="1460" y2="444.79"/>
        <line class="cls-1" x1="1622.62" y1="383.62" x2="1622.62" y2="435.75"/>
        <line class="cls-1" x1="1732.76" y1="416.35" x2="1732.76" y2="458.27"/>
        <polyline class="cls-1" points="1304.91 60.98 1273.71 92.18 1273.71 166.1"/>
        <line class="cls-1" x1="1304.91" y1="135.02" x2="1304.91" y2="372.8"/>
        <line class="cls-1" x1="952.4" y1="354.01" x2="952.4" y2="407.21"/>
        <line class="cls-1" x1="580.41" y1="119.41" x2="580.41" y2="326.94"/>
        <line class="cls-1" x1="563.09" y1="111.2" x2="563.09" y2="394.19"/>
        <line class="cls-1" x1="386.09" y1="422.57" x2="429.03" y2="422.57"/>
        <line class="cls-1" x1="386.09" y1="440.38" x2="417.24" y2="440.38"/>
        <g>
          <g>
            <rect class="cls-1" x="894.72" y="58.05" width="16.52" height="16.52"/>
            <rect class="cls-1" x="922.4" y="58.05" width="16.52" height="16.52"/>
          </g>
          <g>
            <rect class="cls-1" x="894.72" y="83.76" width="16.52" height="16.52"/>
            <rect class="cls-1" x="922.4" y="83.76" width="16.52" height="16.52"/>
          </g>
          <g>
            <rect class="cls-1" x="894.72" y="109.47" width="16.52" height="16.52"/>
            <rect class="cls-1" x="922.4" y="109.47" width="16.52" height="16.52"/>
          </g>
          <g>
            <rect class="cls-1" x="894.72" y="135.18" width="16.52" height="16.52"/>
            <rect class="cls-1" x="922.4" y="135.18" width="16.52" height="16.52"/>
          </g>
          <g>
            <rect class="cls-1" x="894.72" y="160.89" width="16.52" height="16.52"/>
            <rect class="cls-1" x="922.4" y="160.89" width="16.52" height="16.52"/>
          </g>
          <g>
            <rect class="cls-1" x="894.72" y="186.6" width="16.52" height="16.52"/>
            <rect class="cls-1" x="922.4" y="186.6" width="16.52" height="16.52"/>
          </g>
          <g>
            <rect class="cls-1" x="894.72" y="212.31" width="16.52" height="16.52"/>
            <rect class="cls-1" x="922.4" y="212.31" width="16.52" height="16.52"/>
          </g>
          <g>
            <rect class="cls-1" x="894.72" y="238.02" width="16.52" height="16.52"/>
            <rect class="cls-1" x="922.4" y="238.02" width="16.52" height="16.52"/>
          </g>
          <g>
            <rect class="cls-1" x="894.72" y="263.73" width="16.52" height="16.52"/>
            <rect class="cls-1" x="922.4" y="263.73" width="16.52" height="16.52"/>
          </g>
          <g>
            <rect class="cls-1" x="894.72" y="289.45" width="16.52" height="16.52"/>
            <rect class="cls-1" x="922.4" y="289.45" width="16.52" height="16.52"/>
          </g>
          <g>
            <rect class="cls-1" x="894.72" y="315.16" width="16.52" height="16.52"/>
            <rect class="cls-1" x="922.4" y="315.16" width="16.52" height="16.52"/>
          </g>
          <g>
            <rect class="cls-1" x="894.72" y="340.87" width="16.52" height="16.52"/>
            <rect class="cls-1" x="922.4" y="340.87" width="16.52" height="16.52"/>
          </g>
        </g>
        <line class="cls-1" x1="1105.67" y1="252.91" x2="1105.67" y2="494.29"/>
      </g>
      <polyline class="cls-1" points="1121.25 165.41 1164.98 209.14 1164.98 458.27"/>
      <line class="cls-1" x1="1016.82" y1="132.16" x2="1081.51" y2="51.89"/>
      <line class="cls-1" x1="1016.82" y1="172.29" x2="1081.51" y2="92.02"/>
      <line class="cls-1" x1="1016.82" y1="212.43" x2="1081.51" y2="132.16"/>
      <line class="cls-1" x1="1016.82" y1="252.57" x2="1081.51" y2="172.29"/>
      <line class="cls-1" x1="1016.82" y1="292.7" x2="1081.51" y2="212.43"/>
      <line class="cls-1" x1="1016.82" y1="332.84" x2="1081.51" y2="252.57"/>
      <line class="cls-1" x1="1016.82" y1="372.97" x2="1081.51" y2="292.7"/>
      <line class="cls-1" x1="1016.82" y1="413.11" x2="1081.51" y2="332.84"/>
      <line class="cls-1" x1="1337.91" y1="132.16" x2="1337.91" y2="227.38"/>
      <line class="cls-1" x1="1460" y1="250.71" x2="1484.01" y2="274.72"/>
      <line class="cls-1" x1="1460" y1="276.35" x2="1484.01" y2="300.36"/>
      <line class="cls-1" x1="1460" y1="302" x2="1484.01" y2="326"/>
      <line class="cls-1" x1="1460" y1="327.64" x2="1484.01" y2="351.64"/>
      <line class="cls-1" x1="1460" y1="380.92" x2="1501.04" y2="380.92"/>
      <line class="cls-1" x1="1484.01" y1="380.92" x2="1484.01" y2="464.68"/>
    </g>
  </g>
</svg>